<svg xmlns="http://www.w3.org/2000/svg" xmlns:xlink="http://www.w3.org/1999/xlink" version="1.1" class="marks" width="533" height="364" viewBox="0 0 533 364"><rect width="533" height="364" fill="white"/><g fill="none" stroke-miterlimit="10" transform="translate(44,27)"><g class="mark-group role-frame root" role="graphics-object" aria-roledescription="group mark container"><g transform="translate(0,0)"><path class="background" aria-hidden="true" d="M0.5,0.5h400v300h-400Z" stroke="#ddd"/><g><g class="mark-group role-axis" aria-hidden="true"><g transform="translate(0.5,300.5)"><path class="background" aria-hidden="true" d="M0,0h0v0h0Z" pointer-events="none"/><g><g class="mark-rule role-axis-grid" pointer-events="none"><line transform="translate(0,-300)" x2="0" y2="300" stroke="#ddd" stroke-width="1" opacity="1"/><line transform="translate(40,-300)" x2="0" y2="300" stroke="#ddd" stroke-width="1" opacity="1"/><line transform="translate(80,-300)" x2="0" y2="300" stroke="#ddd" stroke-width="1" opacity="1"/><line transform="translate(120,-300)" x2="0" y2="300" stroke="#ddd" stroke-width="1" opacity="1"/><line transform="translate(160,-300)" x2="0" y2="300" stroke="#ddd" stroke-width="1" opacity="1"/><line transform="translate(200,-300)" x2="0" y2="300" stroke="#ddd" stroke-width="1" opacity="1"/><line transform="translate(240,-300)" x2="0" y2="300" stroke="#ddd" stroke-width="1" opacity="1"/><line transform="translate(280,-300)" x2="0" y2="300" stroke="#ddd" stroke-width="1" opacity="1"/><line transform="translate(320,-300)" x2="0" y2="300" stroke="#ddd" stroke-width="1" opacity="1"/><line transform="translate(360,-300)" x2="0" y2="300" stroke="#ddd" stroke-width="1" opacity="1"/><line transform="translate(400,-300)" x2="0" y2="300" stroke="#ddd" stroke-width="1" opacity="1"/></g></g><path class="foreground" aria-hidden="true" d="" pointer-events="none" display="none"/></g></g><g class="mark-group role-axis" aria-hidden="true"><g transform="translate(0.5,0.5)"><path class="background" aria-hidden="true" d="M0,0h0v0h0Z" pointer-events="none"/><g><g class="mark-rule role-axis-grid" pointer-events="none"><line transform="translate(0,300)" x2="400" y2="0" stroke="#ddd" stroke-width="1" opacity="1"/><line transform="translate(0,267)" x2="400" y2="0" stroke="#ddd" stroke-width="1" opacity="1"/><line transform="translate(0,233)" x2="400" y2="0" stroke="#ddd" stroke-width="1" opacity="1"/><line transform="translate(0,200)" x2="400" y2="0" stroke="#ddd" stroke-width="1" opacity="1"/><line transform="translate(0,167)" x2="400" y2="0" stroke="#ddd" stroke-width="1" opacity="1"/><line transform="translate(0,133)" x2="400" y2="0" stroke="#ddd" stroke-width="1" opacity="1"/><line transform="translate(0,100)" x2="400" y2="0" stroke="#ddd" stroke-width="1" opacity="1"/><line transform="translate(0,67)" x2="400" y2="0" stroke="#ddd" stroke-width="1" opacity="1"/><line transform="translate(0,33)" x2="400" y2="0" stroke="#ddd" stroke-width="1" opacity="1"/><line transform="translate(0,0)" x2="400" y2="0" stroke="#ddd" stroke-width="1" opacity="1"/></g></g><path class="foreground" aria-hidden="true" d="" pointer-events="none" display="none"/></g></g><g class="mark-group role-axis" role="graphics-symbol" aria-roledescription="axis" aria-label="X-axis titled 'Year' for a linear scale with values from −900,000 to 100,000"><g transform="translate(0.5,300.5)"><path class="background" aria-hidden="true" d="M0,0h0v0h0Z" pointer-events="none"/><g><g class="mark-rule role-axis-tick" pointer-events="none"><line transform="translate(0,0)" x2="0" y2="5" stroke="#888" stroke-width="1" opacity="1"/><line transform="translate(40,0)" x2="0" y2="5" stroke="#888" stroke-width="1" opacity="1"/><line transform="translate(80,0)" x2="0" y2="5" stroke="#888" stroke-width="1" opacity="1"/><line transform="translate(120,0)" x2="0" y2="5" stroke="#888" stroke-width="1" opacity="1"/><line transform="translate(160,0)" x2="0" y2="5" stroke="#888" stroke-width="1" opacity="1"/><line transform="translate(200,0)" x2="0" y2="5" stroke="#888" stroke-width="1" opacity="1"/><line transform="translate(240,0)" x2="0" y2="5" stroke="#888" stroke-width="1" opacity="1"/><line transform="translate(280,0)" x2="0" y2="5" stroke="#888" stroke-width="1" opacity="1"/><line transform="translate(320,0)" x2="0" y2="5" stroke="#888" stroke-width="1" opacity="1"/><line transform="translate(360,0)" x2="0" y2="5" stroke="#888" stroke-width="1" opacity="1"/><line transform="translate(400,0)" x2="0" y2="5" stroke="#888" stroke-width="1" opacity="1"/></g><g class="mark-text role-axis-label" pointer-events="none"><text text-anchor="start" transform="translate(0,15)" font-family="sans-serif" font-size="10px" fill="#000" opacity="1">−900,000</text><text text-anchor="middle" transform="translate(40,15)" font-family="sans-serif" font-size="10px" fill="#000" opacity="0">−800,000</text><text text-anchor="middle" transform="translate(80,15)" font-family="sans-serif" font-size="10px" fill="#000" opacity="1">−700,000</text><text text-anchor="middle" transform="translate(120,15)" font-family="sans-serif" font-size="10px" fill="#000" opacity="0">−600,000</text><text text-anchor="middle" transform="translate(160,15)" font-family="sans-serif" font-size="10px" fill="#000" opacity="1">−500,000</text><text text-anchor="middle" transform="translate(200,15)" font-family="sans-serif" font-size="10px" fill="#000" opacity="0">−400,000</text><text text-anchor="middle" transform="translate(240,15)" font-family="sans-serif" font-size="10px" fill="#000" opacity="1">−300,000</text><text text-anchor="middle" transform="translate(280,15)" font-family="sans-serif" font-size="10px" fill="#000" opacity="0">−200,000</text><text text-anchor="middle" transform="translate(320,15)" font-family="sans-serif" font-size="10px" fill="#000" opacity="1">−100,000</text><text text-anchor="middle" transform="translate(360,15)" font-family="sans-serif" font-size="10px" fill="#000" opacity="0">0</text><text text-anchor="end" transform="translate(400,15)" font-family="sans-serif" font-size="10px" fill="#000" opacity="1">100,000</text></g><g class="mark-rule role-axis-domain" pointer-events="none"><line transform="translate(0,0)" x2="400" y2="0" stroke="#888" stroke-width="1" opacity="1"/></g><g class="mark-text role-axis-title" pointer-events="none"><text text-anchor="middle" transform="translate(200,30)" font-family="sans-serif" font-size="11px" font-weight="bold" fill="#000" opacity="1">Year</text></g></g><path class="foreground" aria-hidden="true" d="" pointer-events="none" display="none"/></g></g><g class="mark-group role-axis" role="graphics-symbol" aria-roledescription="axis" aria-label="Y-axis titled 'CO2 Concentration (ppm)' for a linear scale with values from 0 to 450"><g transform="translate(0.5,0.5)"><path class="background" aria-hidden="true" d="M0,0h0v0h0Z" pointer-events="none"/><g><g class="mark-rule role-axis-tick" pointer-events="none"><line transform="translate(0,300)" x2="-5" y2="0" stroke="#888" stroke-width="1" opacity="1"/><line transform="translate(0,267)" x2="-5" y2="0" stroke="#888" stroke-width="1" opacity="1"/><line transform="translate(0,233)" x2="-5" y2="0" stroke="#888" stroke-width="1" opacity="1"/><line transform="translate(0,200)" x2="-5" y2="0" stroke="#888" stroke-width="1" opacity="1"/><line transform="translate(0,167)" x2="-5" y2="0" stroke="#888" stroke-width="1" opacity="1"/><line transform="translate(0,133)" x2="-5" y2="0" stroke="#888" stroke-width="1" opacity="1"/><line transform="translate(0,100)" x2="-5" y2="0" stroke="#888" stroke-width="1" opacity="1"/><line transform="translate(0,67)" x2="-5" y2="0" stroke="#888" stroke-width="1" opacity="1"/><line transform="translate(0,33)" x2="-5" y2="0" stroke="#888" stroke-width="1" opacity="1"/><line transform="translate(0,0)" x2="-5" y2="0" stroke="#888" stroke-width="1" opacity="1"/></g><g class="mark-text role-axis-label" pointer-events="none"><text text-anchor="end" transform="translate(-7,303)" font-family="sans-serif" font-size="10px" fill="#000" opacity="1">0</text><text text-anchor="end" transform="translate(-7,269.66666666666663)" font-family="sans-serif" font-size="10px" fill="#000" opacity="1">50</text><text text-anchor="end" transform="translate(-7,236.33333333333334)" font-family="sans-serif" font-size="10px" fill="#000" opacity="1">100</text><text text-anchor="end" transform="translate(-7,203.00000000000003)" font-family="sans-serif" font-size="10px" fill="#000" opacity="1">150</text><text text-anchor="end" transform="translate(-7,169.66666666666669)" font-family="sans-serif" font-size="10px" fill="#000" opacity="1">200</text><text text-anchor="end" transform="translate(-7,136.33333333333331)" font-family="sans-serif" font-size="10px" fill="#000" opacity="1">250</text><text text-anchor="end" transform="translate(-7,103.00000000000001)" font-family="sans-serif" font-size="10px" fill="#000" opacity="1">300</text><text text-anchor="end" transform="translate(-7,69.66666666666666)" font-family="sans-serif" font-size="10px" fill="#000" opacity="1">350</text><text text-anchor="end" transform="translate(-7,36.33333333333335)" font-family="sans-serif" font-size="10px" fill="#000" opacity="1">400</text><text text-anchor="end" transform="translate(-7,3)" font-family="sans-serif" font-size="10px" fill="#000" opacity="1">450</text></g><g class="mark-rule role-axis-domain" pointer-events="none"><line transform="translate(0,300)" x2="0" y2="-300" stroke="#888" stroke-width="1" opacity="1"/></g><g class="mark-text role-axis-title" pointer-events="none"><text text-anchor="middle" transform="translate(-27.6845703125,150) rotate(-90) translate(0,-2)" font-family="sans-serif" font-size="11px" font-weight="bold" fill="#000" opacity="1">CO2 Concentration (ppm)</text></g></g><path class="foreground" aria-hidden="true" d="" pointer-events="none" display="none"/></g></g><g class="mark-line role-mark layer_0_marks" role="graphics-object" aria-roledescription="line mark container"><path aria-label="Year: −803719; Concentration: 207.29" role="graphics-symbol" aria-roledescription="line mark" d="M38.5124,161.80666666666667L38.7272,165.18L38.9708,163.42666666666668L39.176,161.66666666666666L39.21,164.72L39.2964,164.89999999999998L39.6312,167.56L40.2856,167.54666666666665L41.3076,166.34L41.8284,168.06L42.038799999999995,167.47333333333336L42.5052,163.58666666666667L42.7312,160.80666666666664L43.2388,154.4066666666667L43.3724,157.76000000000002L43.7332,157.03333333333336L43.967600000000004,150.20666666666668L44.3572,146.3L44.5244,148.41333333333333L44.7988,143.00666666666666L44.9824,140.90666666666667L45.3032,128.65333333333334L45.388400000000004,128.53333333333336L45.6584,122.66666666666666L45.8376,120.42666666666668L46.1548,123.76666666666664L46.304,125.18L46.5724,126.8933333333333L46.766400000000004,129.4333333333333L47.0752,126.05333333333333L47.5004,129.98666666666665L47.6888,128.37333333333333L48.0252,132.32666666666665L48.154799999999994,128.52666666666667L48.4924,131.6533333333333L48.7044,130.38L49.0328,130.20666666666665L49.156800000000004,130.04666666666668L49.486799999999995,131.69333333333333L49.7072,135.13333333333333L50.0668,134.05333333333334L50.24720000000001,136.45333333333335L50.5648,138.84L50.7964,141.07333333333335L51.1624,140.51333333333332L51.3064,141.48000000000002L51.480000000000004,135.98000000000002L51.58160000000001,137.43333333333334L51.684799999999996,135.67333333333335L51.790000000000006,137.40666666666667L51.910000000000004,140.19333333333333L52.0548,143.83999999999997L52.172399999999996,142.45333333333335L52.371599999999994,146.96L52.5404,146.24666666666667L52.9196,149.42L53.1556,152.24L53.5332,150.7866666666667L53.6812,150.09333333333333L54.056400000000004,146.25333333333333L54.304399999999994,145.25333333333336L54.4396,147.06L54.54520000000001,144.2266666666667L54.7072,151.38L54.909200000000006,150.73999999999998L55.2716,153.36666666666667L55.5392,157.33333333333334L55.913599999999995,156.87333333333333L56.0344,155.57333333333335L56.403999999999996,151.52666666666667L56.5736,149.58666666666664L56.736799999999995,149.75333333333333L56.8288,151.32L56.9552,148.70666666666665L57.1256,151.52L57.435199999999995,154.43333333333334L57.666,157.5933333333333L58.0396,160.36666666666667L58.153600000000004,161.26666666666668L58.545199999999994,164.46666666666664L58.733999999999995,167.29999999999998L59.206,164.06666666666666L59.38440000000001,169.7133333333333L59.7536,168.33333333333334L59.9904,170.96666666666667L60.3656,172.46666666666664L60.4976,171.94666666666666L60.8544,173.22L61.074799999999996,174.21333333333337L61.4452,174.97333333333333L61.604000000000006,174.70000000000002L61.9092,174.72L62.132,173.17333333333335L62.5116,175.14000000000004L62.970800000000004,174.02L63.1964,174.54666666666668L63.5552,175.11333333333332L63.722,174.23333333333335L64.0304,173.90666666666667L64.248,176.81999999999996L64.59559999999999,177.74L64.7376,176.39999999999998L65.11,176.25999999999996L65.3476,172.17333333333332L65.716,163.6533333333333L65.872,162.05333333333337L66.1712,157.90666666666667L66.3372,155.20666666666668L66.616,154.74666666666664L66.726,156.89333333333332L66.9948,155.9L67.1712,159.60000000000002L67.44839999999999,161.52L67.58239999999999,161.26L67.8512,157.51333333333332L68.0356,158.92000000000002L68.3064,159.53333333333333L68.4168,159.89333333333335L68.676,158.55333333333334L68.84519999999999,159.9933333333333L69.1848,159.27999999999997L69.3424,159.83999999999997L69.6204,159.95333333333332L70.14920000000001,159.04666666666665L70.28,159.27999999999997L70.5904,159.00666666666666L70.78999999999999,159.68L71.1232,157.32666666666668L71.268,158.29999999999998L71.58200000000001,158.59333333333333L71.77759999999999,155.93333333333334L72.104,154.02666666666667L72.2168,153.86666666666667L72.5436,155.30666666666667L72.7452,158.64666666666665L73.06519999999999,166.12000000000003L73.2688,171.02666666666667L73.598,173.41333333333336L73.8408,167.71333333333334L74.1456,159.66L74.256,157.6L74.554,148.28L74.7336,151.24L75.0184,148.61333333333332L75.1536,148.23999999999998L75.4548,150.73999999999998L75.8824,150.66666666666666L75.9716,150.58666666666664L76.2204,149.74L76.3868,150.06666666666666L76.5976,148.64666666666665L76.816,146.32666666666668L76.9984,145.71333333333334L77.1964,143.44L77.4148,144.5933333333333L77.5,144.28L77.72240000000001,144.32666666666668L77.85560000000001,140.76666666666665L78.0956,142.63333333333333L78.1828,142.63333333333333L78.3588,141.56L78.4892,141.88L78.6824,143.27333333333334L78.7588,143.97333333333336L78.9472,144.30666666666667L79.0796,144.77999999999997L79.2616,145.14666666666668L79.3924,144.43333333333334L79.57600000000001,146.27333333333334L79.6864,145.2133333333333L79.8996,145.22666666666666L79.9828,146.08L80.17,145.02666666666667L80.2724,143.05333333333334L80.45400000000001,142.26L80.586,142.18666666666667L80.7384,141.85999999999999L80.83399999999999,140.18L81.0044,140.66L81.0936,140.76L81.27879999999999,138.78L81.3776,139.4L81.5644,139.31333333333333L81.6812,140.07999999999998L81.84320000000001,141.05333333333334L81.94399999999999,140.37333333333336L82.122,141.24666666666667L82.206,141.29999999999998L82.3872,140.84L82.4872,142.13333333333333L82.6764,140.1333333333333L82.8004,140.45999999999998L82.9652,139.69333333333333L83.068,140.44L83.2516,141.49333333333334L83.35040000000001,137.53333333333333L83.5492,141.01999999999998L83.6472,140.46666666666667L83.8528,137.62666666666667L83.9928,140.41333333333336L84.1928,141.05333333333334L84.2912,140.47333333333333L84.4856,142.36666666666667L84.59,142.79999999999998L84.7996,145.15333333333334L84.9028,145.28666666666666L85.1168,146.22000000000003L85.256,148.23999999999998L85.46000000000001,148.23333333333332L85.58,148.84666666666666L85.802,151.35333333333335L85.91839999999999,151.53333333333333L86.1472,151.58666666666667L86.2724,152.91333333333333L86.508,152.92000000000002L86.66199999999999,152.12L86.8768,150.42666666666668L87.0104,149.57333333333332L87.2484,151.53333333333333L87.3968,153.17333333333335L87.684,153.9066666666667L87.8424,152.46L88.112,148.06666666666666L88.28960000000001,149.45999999999998L88.52879999999999,144.5933333333333L88.6548,144.26L88.886,144.86666666666667L88.998,147.2266666666667L89.2832,153.27333333333334L89.44879999999999,154.52666666666667L89.7396,155.60666666666665L89.9192,153.35999999999999L90.16760000000001,151.62000000000003L90.6172,155.92000000000002L90.7688,158.8733333333333L91.08840000000001,163.55333333333334L91.30160000000001,165.92L91.6756,168.58L91.9196,170.14000000000001L92.1968,168.78L92.3516,170.07999999999998L92.66159999999999,172.32666666666665L92.8524,174.89333333333335L93.2136,179.55333333333337L93.414,181.52666666666667L93.816,184.19333333333333L94.0788,183.48666666666665L94.4452,179.64L94.6512,179.88666666666668L95.0168,174.82L95.052,171.6333333333333L95.2048,172.65333333333334L95.6288,172.76L95.66120000000001,170.7266666666667L95.8672,173.54L96.2936,172.27333333333334L96.33279999999999,170.68666666666667L96.59440000000001,174.37999999999997L97.01520000000001,176.21333333333334L97.06240000000001,175.08L97.2744,177.26666666666668L97.6912,172.74666666666667L97.7184,173.8466666666667L97.90759999999999,171.37999999999997L98.3268,166.43333333333334L98.5704,166.66666666666669L99.0044,170.11999999999998L99.288,171.41999999999996L99.6964,175.47333333333336L99.9384,175.1533333333333L100.40119999999999,171.04000000000002L100.6408,173.83333333333331L101.1036,169.22000000000003L101.3352,171.01333333333335L101.878,172.1L102.22919999999999,173.40666666666667L102.7196,169.45333333333335L103.0596,169.7933333333333L103.6372,172.29333333333332L103.95,172.41333333333336L104.63119999999999,173.21333333333334L105.0128,174.10000000000002L105.69440000000002,169.77999999999997L106.1712,170.66666666666666L106.7764,170.09333333333333L106.8276,169.36666666666667L107.1488,171.26666666666668L107.83720000000001,169L108.1696,166.35999999999999L108.83359999999999,166.14666666666668L108.87199999999999,163.1533333333333L109.124,166.98666666666665L109.648,162.8266666666667L109.99239999999999,156.19333333333333L110.3612,147.66L110.6208,143.32L110.9812,141.38L111.558,140.54000000000002L111.5996,137.40666666666667L112.1196,137.64666666666668L112.66640000000001,136.07333333333335L113.1984,134.47333333333333L113.73599999999999,131.57333333333335L114.2372,131.51333333333332L114.26039999999999,131.39999999999998L114.72359999999999,131.5L115.20280000000001,129.20666666666668L115.6752,127.90666666666668L116.13960000000002,126.87999999999998L116.15960000000001,128.12L116.608,128.17333333333332L117.0812,127.18666666666665L117.5884,130.28L118.1296,134.34666666666666L118.6588,136.98L119.2004,140.57333333333332L119.7396,141.42666666666665L120.27799999999999,145.03333333333333L120.854,147.07999999999998L121.0928,149.35333333333332L121.44800000000001,153.98666666666668L121.65840000000001,155.82L122.06360000000001,155.70666666666668L122.2912,152.51999999999998L122.60560000000001,144.72000000000003L122.83440000000002,141.34666666666666L123.1612,141.23333333333332L123.35560000000001,144.56L123.6656,147.07333333333335L123.82679999999999,149.54666666666665L124.3724,141.74666666666664L124.58439999999999,137.62666666666667L124.76400000000001,134.6L125.01,133.20000000000002L125.2036,135.76666666666668L125.46839999999999,140.81333333333333L125.6244,143.73333333333332L125.91120000000001,149.34L126.0916,150.69333333333336L127.19640000000001,159.57333333333338L127.3504,162.21333333333334L127.6456,160.08L127.79799999999999,156.36666666666667L128.00879999999998,153.72666666666666L128.1612,149.85999999999999L128.33239999999998,146.49333333333334L128.4544,142.55333333333334L128.6192,137.45999999999998L128.6956,137.24L128.8468,132.35333333333332L129.0676,131.38666666666666L129.2832,133.96L129.5016,132.61333333333334L129.7184,132.44L129.934,132.46666666666664L130.1404,131.39999999999998L130.3348,131.64L130.518,134.0933333333333L130.6864,131.94666666666666L130.8576,132.09333333333333L131.034,132.15333333333334L131.2148,134.18666666666667L131.3896,133.87333333333333L131.5584,134.89333333333332L131.71200000000002,135.79333333333332L131.8536,133.13333333333333L131.99,132.26666666666665L132.1268,133.6L132.2756,132.13333333333333L132.4352,132.13333333333333L132.5948,132.46666666666664L132.7532,133.33333333333331L132.9064,132.46666666666664L133.054,133.20000000000002L133.208,131.33333333333334L133.3664,131.46666666666664L133.4984,130.73333333333335L133.626,131.20000000000002L133.7604,130.33333333333331L133.8844,130.73333333333335L134.0128,130.46666666666667L134.14440000000002,130.86666666666667L134.28199999999998,132.4L134.4216,131.6L134.5644,131.73333333333335L134.7264,132.4L134.8904,134.93333333333334L135.0556,136.13333333333333L135.2088,136.20000000000002L135.3656,138.46666666666664L135.52599999999998,139.93333333333334L135.7176,143.93333333333334L135.856,143.6L136.0248,145.4L136.1996,145.60000000000002L136.3936,147.79999999999998L136.6052,146.46666666666667L136.8308,146.53333333333333L136.9252,146.8666666666667L137.0536,143.66666666666669L137.2688,141.26666666666668L137.4576,139.73333333333332L137.518,136.26666666666665L137.64479999999998,133L137.71720000000002,137.33333333333331L137.826,133.93333333333334L137.9004,138L138.0108,139.33333333333334L138.2172,144.06666666666666L138.44320000000002,148.86666666666667L138.7168,150.46666666666667L138.988,150.9333333333333L139.25639999999999,153.13333333333335L139.3324,151.93333333333334L139.48160000000001,149.13333333333333L139.5716,151.8L139.7072,152.20000000000002L139.9356,153.4L140.2276,156.53333333333333L140.5468,157.6L140.6876,160.8L140.892,165L141.2716,163.6L141.6572,160.20000000000002L142.048,160.26666666666665L142.434,159.79999999999998L142.8256,161.26666666666668L143.242,164.26666666666668L143.684,163.33333333333334L144.1184,159.2L144.5464,158.06666666666666L144.9744,162.4L145.4036,163.33333333333334L145.8464,167.06666666666666L146.3088,166.8L146.502,173L146.7624,170.79999999999998L146.9128,169.93333333333337L147.2072,166.66666666666669L147.3584,163.73333333333332L147.5848,159.06666666666663L147.7428,157L147.9484,152.86666666666667L148.2996,153.13333333333335L148.6636,152.53333333333333L149.0188,151.53333333333333L149.3732,150.20000000000002L149.7004,148.13333333333333L150.0216,146.46666666666667L150.3372,144.20000000000002L150.6452,142.79999999999998L150.9516,142.13333333333333L151.2592,138.73333333333332L152.1504,137.66666666666666L152.4512,136.33333333333331L152.7508,134.86666666666667L153.0484,136.46666666666667L153.34,136.33333333333331L153.6296,135.86666666666667L153.918,135.2L154.2116,138L154.5196,139L154.8408,140.53333333333333L155.1668,141.20000000000002L155.498,138.66666666666666L155.8344,143.20000000000002L156.1752,142.4L156.51919999999998,144.39999999999998L156.86599999999999,139.79999999999998L157.2036,142.00000000000003L157.5328,141.20000000000002L157.8552,142.66666666666666L158.1864,143L158.5064,144.06666666666666L158.8152,143.93333333333334L159.1092,145.2L159.41240000000002,145.33333333333334L159.7248,145.86666666666667L160.0356,146.13333333333333L160.3464,147.86666666666667L160.658,146.13333333333333L160.9692,146.26666666666665L161.2852,144.8L161.5936,142.33333333333334L161.9048,142.4L162.20239999999998,141.6L162.4896,141L162.7704,141.13333333333333L163.06,140.6L163.3428,140.20000000000002L163.6344,137.53333333333333L163.918,135.53333333333336L164.1996,137.79999999999998L164.4864,138.26666666666668L164.582,133.79999999999998L164.7696,131.46666666666664L164.892,139.4L165.0592,138.66666666666666L165.354,141.93333333333334L165.6408,145.79999999999998L165.9284,144.73333333333335L166.2204,144.66666666666666L166.5128,145.86666666666667L166.8056,145.73333333333332L167.108,145.73333333333332L167.422,148.46666666666664L167.7476,151.06666666666666L168.1148,150.79999999999998L168.4892,154.13333333333333L168.6488,152.79999999999998L168.8696,145.79999999999998L169.0188,142.33333333333334L169.2232,140.6L169.6036,142.26666666666665L170,144.8L170.41,144.6L170.7904,139.20000000000002L171.1432,136.26666666666665L171.2596,137.39999999999998L171.4928,137.53333333333333L171.63479999999998,144.86666666666667L171.8748,147.20000000000002L172.04999999999998,154.20000000000002L172.2996,156.33333333333331L172.4896,162.33333333333334L172.764,163L173.2288,164.4L173.6972,163.73333333333332L174.1272,161.26666666666668L174.5392,160L174.674,163.20000000000002L174.94039999999998,166.73333333333332L175.3692,170.4L175.8144,172.86666666666665L176.2656,169.66666666666669L176.67919999999998,165.06666666666666L177.0952,161.13333333333333L177.26239999999999,164.46666666666664L177.4968,163.8L177.68200000000002,167.26666666666668L177.9344,171.66666666666666L178.3792,171.13333333333333L178.8344,167.73333333333335L179.2696,165.4L179.6856,163.39999999999998L180.0812,165.8666666666667L180.52280000000002,165.53333333333333L180.95159999999998,161.26666666666668L181.3964,164.33333333333331L181.8924,165.93333333333334L182.6472,167.26666666666668L183.242,165.33333333333334L183.8876,165.79999999999998L184.516,165.53333333333333L185.1548,166.46666666666667L185.786,161.66666666666666L186.404,160.1333333333333L187.0284,161.6L187.24,159L187.9084,148.53333333333336L188.37040000000002,153.53333333333333L189.1088,138.33333333333334L189.244,134.53333333333333L189.6036,131.93333333333334L189.918,129.79999999999998L190.13119999999998,123.06666666666668L190.2852,120L190.4836,119.46666666666664L190.7272,121.13333333333334L190.9768,121.53333333333333L191.49,119.59999999999998L191.7668,122.4L192.01520000000002,120.93333333333332L192.4992,117.46666666666667L192.7264,119.19999999999999L192.9496,117.53333333333333L193.37800000000001,116.93333333333334L193.59720000000002,118.80000000000001L193.804,117.73333333333335L194.20999999999998,118.86666666666667L194.4016,115.73333333333333L194.708,118.93333333333331L195.0956,123.4L195.47639999999998,116.73333333333335L196.24079999999998,111L196.5984,111.6L196.9408,116.86666666666666L197.2524,110.33333333333333L197.8672,109.59999999999998L198.1628,113.59999999999998L198.75480000000002,113.00000000000001L199.0548,115.66666666666666L199.636,116.19999999999999L199.9236,111.26666666666665L200.496,111.20000000000002L200.80960000000002,115.26666666666664L201.47,115.8L202.81760000000003,126.20000000000002L203.1784,117.59999999999997L203.5892,127L203.8652,127.93333333333332L205.016,136.13333333333333L205.65000000000003,135.46666666666664L206.26639999999998,140.6L206.9572,140L207.6076,148.66666666666666L209.276,146.93333333333334L209.966,150.26666666666668L210.698,156.86666666666667L211.39679999999998,166.73333333333332L212.22560000000001,165.4L213.55360000000002,162.46666666666667L214.704,165.8666666666667L215.7528,176.13333333333335L216.5064,175.93333333333334L217.176,171.33333333333334L218.45279999999997,160.53333333333333L219.0148,160.39999999999998L219.51,155.86666666666667L220.10960000000003,152.59999999999997L221.1244,153.13333333333335L221.762,158.73333333333332L222.25160000000002,163.46666666666667L222.77960000000002,163.20000000000002L223.21040000000002,166.20000000000002L223.66320000000002,133.26666666666665L224.48600000000002,143.86666666666667L224.7864,140.26666666666668L225.18359999999998,138.73333333333332L225.4944,129.53333333333333L225.77319999999997,119.66666666666666L226.03279999999998,114.26666666666665L226.22879999999998,109.46666666666664L226.4968,114.59999999999997L226.7392,100.93333333333334L226.96239999999997,107.73333333333335L227.0404,107.26666666666665L227.1808,111.73333333333333L227.38,117.93333333333332L227.66039999999998,118.26666666666664L227.9224,118.86666666666667L228.2624,123.33333333333333L228.7588,116.59999999999998L229.01440000000002,118.73333333333333L229.2716,119.93333333333331L229.5452,122.59999999999998L229.8056,124L230.1436,122.53333333333335L230.4508,126.33333333333333L230.7772,126.46666666666667L231.1132,126.4L231.42680000000001,128.53333333333336L232.0532,133.8666666666667L232.41360000000003,129.46666666666667L232.84799999999998,144.39999999999998L233.2388,136.53333333333333L233.6068,132.26666666666665L233.92,118.26666666666664L234.1996,135.46666666666664L234.51680000000002,128.6L234.84560000000002,128.86666666666667L235.1592,132.26666666666665L235.4428,138.73333333333332L235.74280000000002,140.66666666666669L236.11200000000002,141.46666666666664L236.46959999999999,144.53333333333333L236.7756,149.20000000000002L237.0104,148.13333333333333L237.4496,149.46666666666667L237.7948,136.79999999999998L238.1476,134.26666666666668L238.46880000000002,133.20000000000002L238.74,139.53333333333333L239.13959999999997,139.86666666666667L239.53359999999998,142.66666666666666L239.9464,140.66666666666669L240.3696,142.60000000000002L240.7336,146L241.02960000000002,150.39999999999998L241.298,155.26666666666665L242.04840000000002,157.93333333333334L242.63439999999997,158.20000000000002L242.998,162.2L243.3196,162.66666666666666L243.6528,161.6L244.1548,155.26666666666665L244.4344,153.06666666666663L244.706,143.4L245.4656,146L245.652,146.4L245.8024,145.73333333333332L246.136,149.06666666666663L246.4076,148L247.00600000000003,145.79999999999998L247.74280000000002,150.86666666666667L248.2196,156.46666666666667L248.5564,159.33333333333331L248.93239999999997,163.66666666666669L249.3436,165.2L249.80280000000002,171.2L250.2768,167.73333333333335L250.718,170.6L251.1144,170.73333333333335L251.5136,173.06666666666666L251.92000000000002,176.86666666666667L252.3656,167.46666666666664L252.80399999999997,170.53333333333336L253.1816,175.20000000000002L253.47680000000003,174.2L253.9772,158.86666666666667L254.3264,166.73333333333332L254.94639999999998,147.93333333333334L255.65319999999997,156.93333333333334L255.958,160.7333333333333L256.2624,162.8666666666667L256.4224,160.26666666666665L257.0212,164.06666666666666L257.6168,164L257.9556,165.4L258.2604,167.33333333333331L258.9452,169.73333333333332L259.2772,168.8666666666667L259.5984,169.73333333333332L259.9272,157.39999999999998L260.2236,166.53333333333333L261.14000000000004,156.86666666666667L262.032,153.73333333333335L262.3044,146.4L262.5544,142.2L262.75719999999995,133.4L262.94719999999995,131.8L263.1312,124.20000000000002L263.5244,113.20000000000002L263.706,114L264.038,124.53333333333333L264.2468,126.86666666666666L264.704,131.46666666666664L264.88439999999997,135.06666666666666L265.0252,136.13333333333333L265.1768,136.26666666666665L265.41,140.6L265.6176,137.93333333333337L265.8232,135.06666666666666L266.0396,139.06666666666666L266.2096,131.93333333333334L266.3836,136.53333333333333L267.63759999999996,138.93333333333334L267.90319999999997,144.06666666666666L268.328,145.06666666666666L268.95120000000003,150.33333333333331L269.2732,144.6L269.4044,143.66666666666669L269.692,143L270.04,156.2L270.276,164.46666666666664L271.0712,162.93333333333334L271.5284,160.8L271.764,161.93333333333334L272.1012,155.93333333333334L272.4056,157.26666666666668L273.1528,139.66666666666666L273.49960000000004,136.46666666666667L273.702,132.60000000000002L273.8136,132.2L274.03400000000005,135L274.2576,138.26666666666668L274.4152,139.79999999999998L274.7476,139.06666666666666L275.1164,132.53333333333336L275.448,137.73333333333335L275.7668,128.4L275.9484,140.33333333333331L276.1488,135.4L276.35679999999996,131.99999999999997L276.4472,135.2L276.71000000000004,137.39999999999998L276.7936,136.93333333333334L277.002,138.53333333333336L277.1472,139.66666666666666L277.2512,146.66666666666669L277.47,141.86666666666667L277.5364,141.26666666666668L277.7308,145.73333333333332L277.884,147.06666666666666L278.0212,149.13333333333333L278.236,147.6L278.402,145.2L278.5496,145.4L278.6988,137.06666666666666L279.2432,134.93333333333334L279.68199999999996,140.6L280.0792,132.73333333333332L281.2048,138.26666666666668L281.4492,139.20000000000002L281.7452,149.06666666666663L282.46000000000004,153.33333333333331L282.7292,149L283.55,154.66666666666666L283.9944,153.13333333333335L284.27799999999996,145.73333333333332L284.8572,145.79999999999998L285.4052,159.53333333333333L286.2156,164.4L287.03159999999997,166.86666666666665L287.4768,167.9333333333333L287.90160000000003,154.86666666666667L288.25919999999996,157.86666666666667L288.8308,161.53333333333336L289.688,173.26666666666668L289.7664,173.73333333333335L290.0388,173.13333333333333L290.4468,169.33333333333337L291.0032,168.2L292.0044,168.13333333333333L292.9744,168.93333333333334L293.28159999999997,177.4666666666667L293.6144,175.53333333333333L294.0664,173.26666666666668L294.3228,172.26666666666665L295.046,169L295.2368,163.8L296.718,174.99999999999997L296.8936,176.33333333333331L297.31359999999995,174.00000000000003L298.25719999999995,173.7466666666667L298.82439999999997,169.13333333333333L299.27000000000004,167.48000000000002L300.202,165.1L300.542,164.99333333333334L300.9936,165.48L301.4868,169.45999999999998L302.3368,170.94L302.86,169.32L303.3196,170.2733333333333L303.8356,168.99333333333334L304.8,171.5L305.2464,167.63333333333335L305.6748,167.21333333333334L306.1536,164.17333333333332L306.9712,158.38L307.2696,151.5066666666667L307.6072,150.24666666666667L307.696,148L307.9896,145.14666666666668L308.2512,139.24666666666667L308.4528,132.7733333333333L308.63079999999997,132.10666666666665L308.9176,126.25999999999998L309.1488,121.03999999999999L309.2288,119.28000000000002L309.39320000000004,109.49333333333335L309.5108,112.85333333333331L309.5704,115.98000000000002L309.7784,115.41333333333334L309.8544,116.14666666666668L309.9952,116.71333333333332L310.1,117.98666666666668L310.3744,116.56666666666669L310.6628,115.46000000000001L310.85319999999996,116.32000000000001L311.01800000000003,112.30666666666667L311.1964,116.08666666666664L311.3276,116.93333333333334L311.57439999999997,113.8933333333333L311.8632,114L311.94,114.50000000000001L312.0432,115.59333333333332L312.2096,113.68L312.5628,115.45333333333333L312.7224,120.84666666666666L312.8936,116.94000000000001L313.0828,121.50666666666665L313.3168,114.85333333333332L313.7324,116.67999999999998L313.9056,117.31333333333336L314.1896,117.58000000000001L314.4164,117.89333333333333L314.6012,115.36000000000001L314.854,116.62000000000002L315.08,121.40000000000002L315.3084,126.28000000000002L315.5324,123.49999999999999L315.6032,124.58666666666667L315.7256,128.80666666666664L316.0292,128.04666666666665L316.558,135.54L316.844,137.24666666666667L317.1284,137.04L317.4192,142.38L317.99,139.7733333333333L318.2328,136.78L318.2776,139.06666666666666L318.384,128.28L318.5772,134.14666666666665L318.7936,138.42666666666665L319.0476,140.74666666666667L319.0704,134.82666666666668L319.45640000000003,139.54666666666665L319.67400000000004,141.95333333333335L319.9912,139.95333333333332L320.2496,136.82666666666665L320.5628,134.75333333333333L320.7492,136.24666666666667L321.0356,138.00666666666666L321.3464,137.88L321.60920000000004,140.0933333333333L321.8716,138.43333333333334L322.19,136.16L322.4116,135.86666666666667L322.6864,138.06L322.9524,138.39333333333335L323.2508,141.19333333333333L323.41,143.22666666666666L323.71279999999996,145.02666666666667L324,144.17333333333332L324.202,145.92L324.4464,145.62666666666667L324.6532,146.83999999999997L324.90160000000003,147.41333333333333L325.082,148.41333333333333L325.2996,150.67333333333335L325.5256,154.8L325.7476,150.91333333333333L325.9688,152.6266666666667L326.1808,151.08L326.42359999999996,147.49333333333334L326.6332,143.54000000000002L326.8052,141.05333333333334L327.0372,137.89333333333332L327.2036,132.80666666666667L327.3584,135.26666666666668L327.5848,135.7866666666667L327.7692,139.42L327.9524,140.74L328.09560000000005,143.91333333333333L328.2972,146.44666666666666L328.4912,144.05333333333334L328.648,146.26666666666665L328.8288,143.50666666666666L329.016,147.16000000000003L329.192,148.46666666666664L329.3768,150.57333333333335L329.5476,148.89999999999998L329.7336,150.05333333333334L329.9576,145.54666666666668L330.1012,141.32666666666665L330.2812,140.44L330.4396,133.37333333333333L330.56199999999995,133.65333333333334L330.7528,137.82000000000002L330.9696,139.17333333333332L331.0916,145.78L331.2796,144.84L331.4924,146.07333333333335L331.6336,145.11333333333332L331.784,144.80666666666667L331.9428,140.35999999999999L332.1024,141.62666666666667L332.26840000000004,143.32L332.40840000000003,149.88666666666668L332.6092,153.11333333333334L332.7592,156.29999999999998L332.9432,159.16L333.1472,163.0533333333333L333.332,164.38000000000002L333.5216,166.55333333333334L333.688,164.16L333.854,165.9066666666667L333.996,161.85999999999999L334.2044,163.74L334.4052,166.27333333333334L334.474,167.88666666666668L334.5616,160.68000000000004L334.7612,167.22L334.83320000000003,165.55333333333334L334.9172,164.2L335.1344,166.84666666666666L335.2212,168.50666666666666L335.3576,168.39999999999998L335.5956,166.5666666666667L335.67,164.85999999999999L335.75919999999996,164.96L336.0196,162.41333333333333L336.15840000000003,159.4L336.286,159.62L336.3556,161.36666666666665L336.4528,157.47999999999996L336.5732,155.16666666666669L336.6308,158.08666666666667L336.736,155.55999999999997L336.8868,151.03333333333333L337.028,149.1L337.138,145.80666666666667L337.4068,151.23333333333335L337.4932,150.43333333333334L337.6424,150.85333333333332L337.78959999999995,155.08L337.8956,156.2L338.1784,158.37333333333333L338.28520000000003,161.55333333333334L338.416,159.82L338.55879999999996,156.81333333333333L338.6628,161.20666666666668L338.7744,155.42666666666665L338.902,157.4066666666667L339.0252,154.6933333333333L339.1172,153.08666666666667L339.2576,152.57333333333335L339.42,151.16L339.53679999999997,150.85333333333332L339.6596,152.56666666666666L339.7504,152.85333333333335L339.826,153.9466666666667L339.9452,157.45333333333335L340.068,156.61333333333332L340.2076,158.95333333333335L340.3684,161.57333333333335L340.5692,161.7266666666667L340.6916,162.17333333333335L340.7772,163.74666666666667L340.8888,164.08666666666664L340.9948,163.96L341.0588,166.58666666666667L341.1848,165.6133333333333L341.4088,166.01333333333332L341.4908,162.54666666666665L341.6024,162.89333333333335L341.696,164.14000000000001L341.7704,163.82666666666665L341.85400000000004,161.6L341.94559999999996,159.82L342.02479999999997,159.44L342.0816,157.21333333333334L342.1256,155.72L342.2564,154.43333333333334L342.3076,153.83333333333334L342.35720000000003,152.1533333333333L342.4292,151.52L342.5016,154.99333333333334L342.596,157L342.668,157.38666666666668L342.7232,161.36666666666665L342.7816,159.00666666666666L342.8536,159.70666666666668L342.9176,158.47333333333336L342.98359999999997,163.44666666666666L343.04,162.52L343.0984,165.33333333333334L343.142,163.79333333333332L343.25640000000004,165.54000000000002L343.31559999999996,164.54666666666665L343.3736,163.85333333333332L343.4396,165.56000000000003L343.51120000000003,164.56L343.5928,163.82666666666665L343.64,162.4333333333333L343.72880000000004,163.44666666666666L343.85360000000003,166.06666666666666L344.01959999999997,166.74L344.07640000000004,165.92L344.1376,163.0066666666667L344.2584,163.87333333333336L344.31280000000004,165.64666666666665L344.4172,166.02L344.47839999999997,166.35333333333335L344.55879999999996,165.68L344.5856,165.78666666666666L344.65680000000003,168.06666666666666L344.72200000000004,170.87333333333333L344.7352,171.28L344.76279999999997,171.60000000000002L344.8196,168.29999999999998L344.82599999999996,170.75333333333333L344.8772,170.94666666666666L344.8964,168.88666666666668L344.9316,169.53333333333333L344.974,166.4L344.9984,167.90666666666667L345.0188,172.31333333333333L345.0284,163.48L345.044,161.42000000000002L345.052,160.44666666666666L345.0588,160.33333333333334L345.0736,160.87333333333336L345.1316,161.7866666666667L345.1584,163.81333333333333L345.18919999999997,165.10666666666665L345.1976,162.67333333333332L345.23,162.89999999999998L345.25480000000005,162.60666666666665L345.2908,162.3066666666667L345.3116,163.6933333333333L345.33119999999997,163.47333333333333L345.35040000000004,161.18L345.3668,159.9466666666667L345.3908,161.84666666666666L345.4148,159.47333333333336L345.4364,161.33333333333334L345.4664,161.7266666666667L345.5032,162.31999999999996L345.5136,161.10666666666668L345.5444,157.0933333333333L345.58,159.19333333333333L345.622,157.19333333333333L345.6692,158.60666666666665L345.7208,158.57333333333335L345.7324,157.1333333333333L345.7956,160.10666666666665L345.80760000000004,158.32666666666665L345.8448,162.27333333333334L345.8592,160.22666666666666L345.8612,161.16666666666669L345.9228,161.76666666666668L345.93240000000003,159.89333333333335L345.9708,162.42666666666668L346.00399999999996,164.32666666666665L346.05199999999996,164.82666666666668L346.0948,164.16666666666669L346.112,164.15333333333334L346.1432,163.26666666666665L346.1776,167.35999999999999L346.2752,166.60666666666668L346.31080000000003,165.48L346.34520000000003,163.92L346.4008,167.46666666666664L346.438,164.47333333333336L346.49920000000003,166.33333333333334L346.51079999999996,165.46L346.5528,165.4466666666667L346.5676,165.40666666666667L346.57640000000004,165.3066666666667L346.5812,165.95999999999998L346.6016,166.46666666666667L346.6268,165.76L346.6364,164.25333333333333L346.6452,163.68666666666667L346.6672,163.08L346.7136,164.26666666666668L346.74399999999997,167.48000000000002L346.83320000000003,164.60666666666665L346.8496,164.79999999999995L346.8956,168.56000000000003L346.9208,167.40666666666667L346.932,166.47333333333333L346.9388,167.00666666666663L346.9572,166.9L347.0464,169.20000000000002L347.0548,169.1533333333333L347.0796,169.47333333333333L347.104,170.07333333333335L347.1544,169.38L347.1832,169.72666666666666L347.1972,169.02L347.2096,170.35333333333332L347.2168,170.35999999999999L347.2256,169.82000000000002L347.2436,169.58L347.2768,166.64666666666668L347.358,168.13333333333333L347.3836,168.58L347.4128,168.73333333333332L347.5208,168.23333333333335L347.5764,169.11333333333332L347.6276,168.8666666666667L347.6548,167.13333333333333L347.69440000000003,169.37333333333336L347.7088,169.94666666666666L347.742,170.38000000000002L347.7756,170.25999999999996L347.80600000000004,170.5933333333333L347.8356,169.83333333333334L347.8568,171.68666666666667L347.9196,168.72666666666666L347.9208,169.0533333333333L347.94800000000004,170.7266666666667L347.9692,171.11333333333332L348.0064,171.66000000000003L348.0528,171.37999999999997L348.0632,170.86L348.17040000000003,173.36666666666667L348.2376,174.3466666666667L348.33799999999997,174.66666666666666L348.4696,173.11333333333334L348.4948,175.24L348.5684,178.04000000000002L348.6196,177.13333333333333L348.6548,176.00666666666663L348.6688,175.65333333333334L348.7072,174.3466666666667L348.7392,174.5L348.7804,172.28666666666666L348.79920000000004,172.41333333333336L348.8448,172.68666666666667L348.8828,172.48L348.9076,173.48666666666665L348.9364,173.83999999999997L349.016,173.85999999999996L349.03360000000004,173.44666666666666L349.0504,172.66L349.08000000000004,171.74L349.098,174.60000000000002L349.1196,171.82666666666668L349.1764,171.41999999999996L349.2004,171.16L349.2188,171.54000000000002L349.2432,170.74L349.2904,170.79999999999998L349.32959999999997,171.45333333333332L349.3492,171.26666666666668L349.4092,173.56666666666663L349.4144,173.89333333333332L349.432,171.58L349.47119999999995,172.27333333333334L349.4944,172.12000000000003L349.5412,173.35999999999999L349.5908,173.8066666666667L349.6092,174.00666666666666L349.626,173.81333333333333L349.6336,172.94666666666666L349.65160000000003,174.94L349.6924,173.79999999999998L349.69440000000003,172.92666666666665L349.7052,171.52666666666667L349.7156,172.36L349.7456,172.03333333333333L349.76,172.31333333333333L349.7788,172.51333333333335L349.8032,172.03333333333333L349.868,173.29333333333332L349.912,170.04666666666668L349.946,175.82L349.96320000000003,175.07333333333332L349.998,174.61333333333332L350.03679999999997,175.7133333333333L350.09839999999997,176.3733333333333L350.1652,176.32666666666668L350.1956,175.99333333333337L350.254,177.48666666666668L350.278,176.95333333333332L350.3736,176.98666666666668L350.4656,175.64000000000001L350.5624,177.74666666666664L350.63960000000003,178.22666666666666L350.71439999999996,179.54000000000002L350.92240000000004,179.62L351.072,175.51333333333335L351.1488,176.87999999999997L351.2304,177.91333333333336L351.3396,174.6733333333333L351.402,175.48L351.4368,170.98000000000002L351.4692,168.22L351.50600000000003,174.26666666666668L351.53720000000004,173.27999999999997L351.5744,172.98L351.5824,173.73333333333335L351.6464,175.91333333333333L351.6804,173.32666666666668L351.7196,174.33999999999997L351.73839999999996,176.52666666666664L351.76,176.87999999999997L351.8408,175.32000000000002L351.8632,175.18666666666667L351.8876,172.48666666666668L351.95759999999996,175.08L352.0144,172.8133333333333L352.0636,174.69333333333333L352.1548,176.51333333333332L352.24199999999996,175.17333333333332L352.2948,173.3L352.3528,174.39999999999998L352.3944,172.7533333333333L352.4488,171.56000000000003L352.5136,174.82666666666668L352.5652,170.71333333333334L352.6168,173.34L352.6948,173.01999999999998L352.7724,170.85333333333332L352.82640000000004,169.29333333333332L352.8636,170.9333333333333L352.9284,172.38666666666668L352.9528,174.03333333333333L353.00280000000004,172.32L353.0672,172.28L353.1188,172.60666666666668L353.1824,171.52666666666667L353.23319999999995,174.33333333333334L353.246,174.37333333333333L353.2584,171.35333333333332L353.2812,172.48666666666668L353.3092,170.73333333333335L353.34680000000003,174.28666666666666L353.372,174.88666666666666L353.3852,175.27333333333334L353.39680000000004,175.03333333333333L353.4112,174.35333333333332L353.42359999999996,174.52666666666667L353.436,174.18L353.4504,175.2533333333333L353.46160000000003,173.98000000000002L353.47400000000005,174.32L353.48720000000003,174.08L353.4992,176.23333333333332L353.5108,173.99333333333334L353.524,176.74666666666667L353.53560000000004,174.27333333333334L353.5472,174.24L353.56,174.84666666666666L353.5704,174.80666666666667L353.58320000000003,174.02666666666667L353.5936,174.2266666666667L353.6056,174.30666666666667L353.6172,172.18666666666667L353.6276,173.16000000000003L353.638,173.65333333333334L353.65000000000003,172.52666666666667L353.6608,175.16666666666666L353.67199999999997,172.20000000000002L353.68240000000003,173.06L353.69320000000005,173.65333333333334L353.7036,172.32L353.714,170.41333333333333L353.7248,171.19333333333336L353.73519999999996,169.47333333333333L353.7456,168.69333333333333L353.7556,171.58666666666667L353.76599999999996,171.75333333333333L353.7756,172.27333333333334L353.786,172.3466666666667L353.7956,171.33333333333334L353.80600000000004,172.82666666666665L353.816,172.07333333333332L353.826,171.32L353.836,173L353.8552,170.23333333333332L353.8648,169.41333333333336L353.8856,167.80666666666667L353.9144,167.57999999999998L353.9432,165.2666666666667L353.982,163.78666666666666L354.0084,164.71333333333334L354.0324,163.20666666666665L354.06080000000003,162.98L354.0864,159.83333333333334L354.11760000000004,157.9L354.144,161.02666666666667L354.1584,160.9L354.176,161.36666666666665L354.1912,157.37333333333333L354.1968,155.20666666666668L354.20759999999996,158.80666666666667L354.2156,158.03333333333333L354.22319999999996,160.32666666666668L354.23,159.19333333333333L354.2384,156.77999999999997L354.2452,158.38L354.2532,156.93333333333334L354.26120000000003,158.10666666666668L354.2684,157.18666666666664L354.2756,154.29333333333335L354.2836,153.00666666666666L354.2908,151.17333333333332L354.2964,148.45333333333332L354.3052,152.34L354.3132,149.20666666666668L354.3196,150.09333333333333L354.33439999999996,151.72666666666666L354.3468,150.50666666666666L354.3664,150.34666666666666L354.374,151.74L354.3804,150.39333333333332L354.382,150.85333333333332L354.40520000000004,150.81999999999996L354.412,150.99333333333334L354.442,151.76000000000002L354.4728,150.09333333333333L354.498,151.89333333333335L354.5204,151.4933333333333L354.5616,150.98L354.5948,151.15333333333334L354.616,150.17333333333335L354.6268,149.74L354.642,147.38666666666666L354.6516,148.23999999999998L354.6676,149.48666666666668L354.6828,147.82L354.6924,146.54666666666665L354.7076,148.10666666666665L354.71720000000005,147.46L354.7264,146.88666666666668L354.7416,143.68666666666667L354.7508,147.34L354.766,149.74666666666667L354.7756,147.75333333333333L354.7852,148.23333333333332L354.7896,146.80666666666667L354.7984,147.40666666666667L354.8084,147.68666666666667L354.8136,147.76L354.8184,147.52L354.8232,146.24666666666667L354.8276,148.10000000000002L354.8324,145.18666666666667L354.8368,144.55333333333334L354.842,148.08666666666664L354.846,147.73333333333335L354.8512,148.99333333333334L354.8556,148.28L354.8604,147.66666666666666L354.8648,148.14000000000001L354.8696,148.4066666666667L354.8748,150.24L354.8764,148.06666666666666L354.8828,145.68L354.8876,143.64000000000001L354.8928,146.31333333333333L354.8972,147.88L354.90119999999996,147.39333333333335L354.90560000000005,141.67333333333335L354.91,143.77333333333334L354.9144,144.38666666666666L354.9192,143.58666666666664L354.922,141.25333333333333L354.928,139.93333333333334L354.9324,141.35333333333335L354.93760000000003,141.60666666666668L354.942,143.12666666666667L354.9456,141.35333333333335L354.9496,140.15333333333334L354.9544,140.0933333333333L354.9588,138.84666666666666L354.9632,142.78L354.9676,137.88666666666668L354.9716,139.24L354.9812,138.62666666666667L354.9944,140.92666666666665L355.00280000000004,139.36666666666667L355.0112,138.26666666666668L355.0156,138.29999999999998L355.03,139.78L355.0384,141.07333333333335L355.0428,138.61333333333332L355.0564,142.79999999999998L355.06039999999996,140.64L355.0708,139.85999999999999L355.0852,142.26666666666665L355.0976,141.09333333333333L355.108,140.42666666666668L355.1172,140.50666666666666L355.132,142.4L355.1464,144.74666666666667L355.156,139.1533333333333L355.1708,141.42000000000002L355.1792,142.72L355.204,139.62L355.2312,141.36666666666667L355.2492,140.61333333333332L355.27639999999997,139.26L355.2948,138.94L355.322,140.96666666666667L355.3396,137.42666666666668L355.3672,142.78L355.3852,139.83333333333334L355.4128,141.44666666666666L355.45840000000004,142.09333333333333L355.4732,139.72L355.4936,140.39333333333335L355.5108,142.06L355.5288,143.45333333333335L355.5448,138.95999999999998L355.5532,141.39333333333335L355.56239999999997,140.76L355.57120000000003,143.54666666666665L355.57959999999997,140.38666666666668L355.5876,141.9L355.596,139.52666666666667L355.6044,141.2133333333333L355.6132,140.80666666666667L355.6228,140.37333333333336L355.6304,139.17333333333332L355.6388,140.43333333333334L355.648,138.56666666666666L355.65639999999996,138.51333333333335L355.6656,139L355.6748,139.98666666666665L355.68399999999997,135.13333333333333L355.692,138.94L355.7012,137.17333333333335L355.7104,138.31333333333333L355.7184,137.36666666666667L355.728,135.37333333333333L355.73679999999996,134.60666666666668L355.7452,135.32L355.754,137.15333333333334L355.7624,133.38666666666668L355.77160000000003,135.5066666666667L355.78159999999997,137.05333333333334L355.79,135.88L355.798,136.11333333333332L355.8072,134.88666666666668L355.8164,135.73333333333332L355.8248,138L355.834,137.12666666666667L355.8428,135.35333333333332L355.8516,132.84666666666666L355.8596,134.05333333333334L355.86760000000004,133.74666666666667L355.8776,134.03333333333336L355.8868,133.84666666666666L355.8956,133.56666666666666L355.904,132.68666666666664L355.9128,132.38666666666668L355.9216,132.57333333333335L355.93,131.32L355.938,129.55999999999997L355.94800000000004,132.64666666666665L355.9564,131.26666666666668L355.9652,134.39333333333335L355.9736,134.76666666666665L355.98359999999997,129.74L355.992,130.67333333333332L356.00079999999997,134.05333333333334L356.0092,127.62L356.018,129.4L356.02680000000004,132.29333333333335L356.03479999999996,130.91333333333333L356.0428,130.45999999999998L356.0516,128.5533333333333L356.0588,127.64666666666668L356.06759999999997,127.83333333333333L356.0764,127.50666666666666L356.0836,129.4066666666667L356.092,129.30666666666667L356.0996,130.67333333333332L356.1068,130.25333333333333L356.114,134.96666666666667L356.12080000000003,128.57999999999998L356.1284,122.52L356.1356,125.8L356.1432,126.20000000000002L356.1496,121.94000000000003L356.156,124.84L356.1624,122.06666666666669L356.17040000000003,120.32666666666668L356.17719999999997,121.55999999999997L356.184,121.88666666666664L356.19079999999997,120.59999999999998L356.1988,120.75333333333334L356.2056,119.90666666666667L356.21320000000003,123.68L356.21999999999997,121.22666666666665L356.2268,123.44000000000003L356.24440000000004,123.46L356.2532,123.93333333333332L356.2772,123.73333333333335L356.2996,123.13333333333331L356.3056,123.33333333333333L356.3156,123.46666666666667L356.344,123.46666666666667L356.3984,121.6L356.4456,123.26666666666665L356.4592,122.66666666666666L356.508,122.06666666666669L356.5776,121.66666666666667L356.6332,123.4L356.66,122.86666666666667L356.7028,124.40000000000002L356.726,124L356.7828,123.86666666666666L356.8196,123.73333333333335L356.9508,124.13333333333334L356.9576,124.66666666666667L356.97040000000004,126.06666666666668L356.9728,126.26666666666667L357.0052,123.20000000000002L357.0356,124.13333333333334L357.062,124.20000000000002L357.1228,125.33333333333334L357.156,127.13333333333331L357.1828,126.4L357.2152,126.06666666666668L357.2676,127.33333333333331L357.2956,125.46666666666665L357.3612,126.20000000000002L357.396,125.8L357.4392,127.79999999999998L357.502,127.13333333333331L357.5336,126.93333333333334L357.5896,126.13333333333333L357.6096,127.20000000000002L357.636,126.86666666666666L357.692,126.4L357.7156,126.59999999999998L357.7808,127.73333333333335L357.81800000000004,126.20000000000002L357.8704,124.66666666666667L357.90479999999997,125.13333333333333L357.9648,128.26666666666665L357.992,127.93333333333332L358.028,124.73333333333333L358.072,125.26666666666664L358.1068,127.06666666666668L358.1512,125.93333333333331L358.2196,125.86666666666667L358.2452,124.86666666666667L358.2592,124.53333333333333L358.344,123.00000000000001L358.3804,122.2L358.4064,126.20000000000002L358.43919999999997,123.00000000000001L358.47679999999997,122.73333333333336L358.5476,121.6L358.5668,123.20000000000002L358.6368,123.13333333333331L358.6556,121.6L358.69239999999996,120.13333333333331L358.7452,120.93333333333332L358.7872,120.46666666666667L358.8116,119.53333333333335L358.8708,118.99999999999999L358.9212,120.13333333333331L358.9428,120.59999999999998L358.9824,119.26666666666667L359.0428,118.99999999999999L359.07,118.13333333333334L359.0976,118.93333333333331L359.1364,118.86666666666667L359.1924,116.73333333333335L359.2376,116.4L359.2572,118.99999999999999L359.3028,118L359.3224,117.73333333333335L359.3688,116.66666666666666L359.4076,117.33333333333333L359.46639999999996,117.93333333333332L359.4776,115.8L359.5572,116.93333333333334L359.60040000000004,115.8L359.618,116.86666666666666L359.6592,116.46666666666667L359.6968,114.06666666666668L359.7288,117.40000000000002L359.7696,114.73333333333335L359.8144,114.93333333333332L359.8736,115.53333333333336L359.8864,115.53333333333336L359.94280000000003,115.40000000000002L359.98,114.66666666666667L360.0004,115.53333333333336L360.012,114.73333333333335L360.0224,115.06666666666669L360.0416,114.99999999999999L360.05440000000004,114.59999999999997L360.0616,114.62L360.07,114.96L360.09639999999996,113.16666666666667L360.1064,114.45999999999998L360.1096,113.17333333333332L360.1184,112.72666666666666L360.12719999999996,112.20666666666668L360.14279999999997,114.79999999999998L360.1536,115.16666666666666L360.1624,113.91333333333333L360.1748,113.33333333333333L360.1952,115.25999999999999L360.2072,115.47333333333333L360.2208,115.62666666666667L360.2228,114.36000000000003L360.2328,115.86666666666667L360.24600000000004,114.75333333333334L360.2548,113.60666666666668L360.2676,114.36666666666667L360.2804,115.26666666666664L360.29200000000003,113.34L360.3048,113.80666666666667L360.31719999999996,113.51999999999998L360.3288,114.25333333333333L360.34999999999997,113.72L360.3656,113.25999999999998L360.3832,115.05999999999999L360.3932,114.17333333333333L360.4072,113.46666666666667L360.4076,113.29333333333334L360.416,112.71999999999997L360.4196,112.68666666666665L360.428,111.44000000000001L360.4396,111.27333333333335L360.44640000000004,111.44000000000001L360.4584,110.32666666666668L360.4664,110.68666666666664L360.48,110.30666666666666L360.4844,110.87333333333333L360.5004,111.72666666666666L360.50399999999996,111.86666666666667L360.51120000000003,114.38L360.52279999999996,112.28000000000003L360.532,110.62L360.5396,114.42666666666666L360.556,112.72666666666666L360.5644,113.53333333333335L360.5716,113.5133333333333L360.57959999999997,111.84666666666665L360.5876,113.12666666666668L360.6008,111.25333333333333L360.612,110.7L360.62,110.98000000000003L360.624,112.11333333333333L360.62919999999997,111.61999999999999L360.6352,112.5933333333333L360.63640000000004,113.75999999999999L360.6412,116.62000000000002L360.6436,119.25999999999999L360.65160000000003,117.48000000000002L360.656,115.53999999999999L360.6596,114.65333333333335L360.6728,115.56L360.676,115.78666666666668L360.6776,115.09333333333333L360.6892,114.90666666666668L360.6936,114.45999999999998L360.6964,115.46000000000001L360.69960000000003,114.93333333333332L360.7008,115.17999999999998L360.7052,115.22666666666665L360.7056,115.73333333333333L360.7092,114.75999999999999L360.7116,113.17333333333332L360.712,117.95333333333335L360.7176,112.25333333333332L360.71840000000003,112.43333333333332L360.7196,111.46666666666665L360.7256,110.38L360.73,112.42666666666665L360.73080000000004,109.39333333333333L360.7332,110.36666666666667L360.7348,110.56666666666669L360.7364,110.9L360.7372,112.28000000000003L360.7376,110.98000000000003L360.738,111.21333333333332L360.7384,110.92L360.73879999999997,108.77333333333337L360.74,110.66666666666669L360.74039999999997,108.58L360.7416,107.96666666666664L360.74199999999996,109.62000000000002L360.7428,111.22666666666665L360.7436,108.91333333333336L360.7448,108.55333333333333L360.7452,109.76666666666665L360.7456,108.90000000000003L360.7468,109.96666666666665L360.7472,107.49333333333334L360.748,108.55999999999997L360.74920000000003,108.89333333333332L360.7496,105.62666666666667L360.7508,107.11333333333334L360.752,108.15333333333334L360.7532,105.02666666666667L360.7536,107.00666666666665L360.7544,107.92L360.7548,103.77333333333335L360.7556,105.1066666666667L360.756,106.05333333333333L360.7568,103.21999999999998L360.75719999999995,103.27333333333334L360.75759999999997,104.34L360.7596,102.56L360.76,103.85333333333331L360.7608,102.92666666666666L360.76160000000004,102.67333333333333L360.762,100.65333333333336L360.7624,101.01333333333332L360.7636,98.99999999999999L360.764,101.41999999999999L360.7644,101.09333333333332L360.7652,99.13333333333333L360.7656,99.53333333333335L360.76640000000003,98.71999999999998L360.7672,97.43333333333332L360.7676,96.92666666666666L360.76800000000003,98.74666666666666L360.7692,96.87333333333335L360.77,96.77333333333335L360.77119999999996,95.44000000000001L360.7716,96.25333333333334L360.7724,96.17333333333332L360.77279999999996,94.49333333333334L360.7732,95.26L360.7736,94.43333333333331L360.774,95.78666666666669L360.77439999999996,94.46666666666667L360.77479999999997,95.05999999999999L360.7752,92.61999999999999L360.7756,92.78L360.776,93.08000000000001L360.7764,93.48666666666668L360.7768,91.75333333333334L360.7776,91.75999999999999L360.778,92.70666666666666L360.77840000000003,91.82666666666665L360.77880000000005,92.25999999999999L360.7792,92.28666666666668L360.7796,93.53999999999999L360.78000000000003,91.44666666666666L360.7808,91.88000000000001L360.7816,91.51333333333334L360.782,90.19333333333334L360.7824,89.77333333333335L360.7828,89.77333333333335L360.7832,89.77333333333335L360.7836,89.35333333333331L360.784,88.72666666666666L360.7844,88.24000000000001L360.7848,87.7L360.7852,87.34L360.7856,86.91999999999999L360.786,86.63999999999999L360.7864,85.74666666666666L360.78679999999997,85.22666666666665L360.7872,84.63999999999997L360.7876,83.58666666666666L360.788,82.88L360.78839999999997,82.45333333333333L360.7888,81.69999999999999L360.7892,80.21333333333331L360.7896,79.88L360.78999999999996,79.25999999999999L360.7904,78.64L360.7908,77.44666666666667L360.7912,76.4L360.7916,75.44000000000001L360.79200000000003,74.16666666666667L360.7924,73.25999999999999L360.7928,72.36666666666667L360.7932,71.30000000000001L360.7936,70.23333333333335L360.79400000000004,69.25333333333332L360.7944,68.38666666666664L360.7948,67.20666666666666L360.7952,65.62L360.79560000000004,64.58666666666666L360.796,63.74000000000001L360.7964,62.92666666666664L360.7968,62.36666666666667L360.79720000000003,61.93333333333333L360.7976,60.78L360.798,59.45333333333333L360.7984,58.25999999999998L360.7988,57.513333333333314L360.7992,55.53333333333333L360.7996,54.41333333333333L360.8,53.63333333333331L360.8004,52.57333333333333L360.8008,51.146666666666675L360.8012,49.46666666666666L360.8016,48.32000000000001L360.80199999999996,46.80000000000001L360.8024,45.40000000000003L360.8028,44.14L360.8032,42.93333333333332L360.80359999999996,41.713333333333324L360.804,40.06666666666669L360.8044,38.90000000000001L360.8048,37.43333333333333L360.80519999999996,35.65333333333336L360.80559999999997,34.23333333333335L360.806,32.78000000000002L360.8064,30.50666666666665L360.8068,28.96666666666665L360.80719999999997,27.65333333333334" stroke="black" stroke-width="2"/></g><g class="mark-rule role-mark layer_1_marks" role="graphics-object" aria-roledescription="rule mark container"><line aria-label="y: 298.6" role="graphics-symbol" aria-roledescription="rule mark" transform="translate(400,100.93333333333334)" x2="-400" y2="0" stroke="green"/></g><g class="mark-text role-mark layer_2_marks" role="graphics-object" aria-roledescription="text mark container"><text aria-label="label: Maximum CO2 levels before 1900 was 298.6 ppm; y: 298.6" role="graphics-symbol" aria-roledescription="text mark" text-anchor="middle" transform="translate(203,97.93333333333334)" font-family="sans-serif" font-size="11px" fill="green">Maximum CO2 levels before 1900 was 298.6 ppm</text></g><g class="mark-symbol role-mark layer_3_marks" role="graphics-object" aria-roledescription="symbol mark container"><path aria-label="Year: 2018; Concentration: 408.52" role="graphics-symbol" aria-roledescription="point" transform="translate(360.80719999999997,27.65333333333334)" d="M2.7386127875258306,0A2.7386127875258306,2.7386127875258306,0,1,1,-2.7386127875258306,0A2.7386127875258306,2.7386127875258306,0,1,1,2.7386127875258306,0" stroke="red" stroke-width="2" opacity="0.7"/></g><g class="mark-text role-mark layer_4_marks" role="graphics-object" aria-roledescription="text mark container"><text aria-label="label: CO2 levels in 2018 were 408.5 ppm, 36.8% higher; Year: 2018; Concentration: 408.52" role="graphics-symbol" aria-roledescription="text mark" text-anchor="middle" transform="translate(360.80719999999997,20.65333333333334)" font-family="sans-serif" font-size="11px" fill="red">CO2 levels in 2018 were 408.5 ppm, 36.8% higher</text></g><g class="mark-group role-title"><g transform="translate(200,-22)"><path class="background" aria-hidden="true" d="M0,0h0v0h0Z" pointer-events="none"/><g><g class="mark-text role-title-text" role="graphics-symbol" aria-roledescription="title" aria-label="Title text 'Atmospheric CO2 Levels from 800,000 BCE to 2018 CE'" pointer-events="none"><text text-anchor="middle" transform="translate(0,10)" font-family="sans-serif" font-size="13px" font-weight="bold" fill="#000" opacity="1">Atmospheric CO2 Levels from 800,000 BCE to 2018 CE</text></g></g><path class="foreground" aria-hidden="true" d="" pointer-events="none" display="none"/></g></g></g><path class="foreground" aria-hidden="true" d="" display="none"/></g></g></g></svg>