<svg xmlns="http://www.w3.org/2000/svg" xmlns:xlink="http://www.w3.org/1999/xlink" version="1.1" class="marks" width="432" height="360" viewBox="0 0 432 360"><rect width="432" height="360" fill="white"/><g fill="none" stroke-miterlimit="10" transform="translate(26,23)"><g class="mark-group role-frame root" role="graphics-object" aria-roledescription="group mark container"><g transform="translate(0,0)"><path class="background" aria-hidden="true" d="M0.5,0.5h400v300h-400Z" stroke="#ddd"/><g><g class="mark-group role-axis" aria-hidden="true"><g transform="translate(0.5,300.5)"><path class="background" aria-hidden="true" d="M0,0h0v0h0Z" pointer-events="none"/><g><g class="mark-rule role-axis-grid" pointer-events="none"><line transform="translate(0,-300)" x2="0" y2="300" stroke="#ddd" stroke-width="1" opacity="1"/><line transform="translate(40,-300)" x2="0" y2="300" stroke="#ddd" stroke-width="1" opacity="1"/><line transform="translate(80,-300)" x2="0" y2="300" stroke="#ddd" stroke-width="1" opacity="1"/><line transform="translate(120,-300)" x2="0" y2="300" stroke="#ddd" stroke-width="1" opacity="1"/><line transform="translate(160,-300)" x2="0" y2="300" stroke="#ddd" stroke-width="1" opacity="1"/><line transform="translate(200,-300)" x2="0" y2="300" stroke="#ddd" stroke-width="1" opacity="1"/><line transform="translate(240,-300)" x2="0" y2="300" stroke="#ddd" stroke-width="1" opacity="1"/><line transform="translate(280,-300)" x2="0" y2="300" stroke="#ddd" stroke-width="1" opacity="1"/><line transform="translate(320,-300)" x2="0" y2="300" stroke="#ddd" stroke-width="1" opacity="1"/><line transform="translate(360,-300)" x2="0" y2="300" stroke="#ddd" stroke-width="1" opacity="1"/><line transform="translate(400,-300)" x2="0" y2="300" stroke="#ddd" stroke-width="1" opacity="1"/></g></g><path class="foreground" aria-hidden="true" d="" pointer-events="none" display="none"/></g></g><g class="mark-group role-axis" aria-hidden="true"><g transform="translate(0.5,0.5)"><path class="background" aria-hidden="true" d="M0,0h0v0h0Z" pointer-events="none"/><g><g class="mark-rule role-axis-grid" pointer-events="none"><line transform="translate(0,300)" x2="400" y2="0" stroke="#ddd" stroke-width="1" opacity="1"/><line transform="translate(0,210)" x2="400" y2="0" stroke="#ddd" stroke-width="1" opacity="1"/><line transform="translate(0,157)" x2="400" y2="0" stroke="#ddd" stroke-width="1" opacity="1"/><line transform="translate(0,119)" x2="400" y2="0" stroke="#ddd" stroke-width="1" opacity="1"/><line transform="translate(0,90)" x2="400" y2="0" stroke="#ddd" stroke-width="1" opacity="1"/><line transform="translate(0,67)" x2="400" y2="0" stroke="#ddd" stroke-width="1" opacity="1"/><line transform="translate(0,46)" x2="400" y2="0" stroke="#ddd" stroke-width="1" opacity="1"/><line transform="translate(0,29)" x2="400" y2="0" stroke="#ddd" stroke-width="1" opacity="1"/><line transform="translate(0,14)" x2="400" y2="0" stroke="#ddd" stroke-width="1" opacity="1"/><line transform="translate(0,0)" x2="400" y2="0" stroke="#ddd" stroke-width="1" opacity="1"/></g></g><path class="foreground" aria-hidden="true" d="" pointer-events="none" display="none"/></g></g><g class="mark-group role-axis" role="graphics-symbol" aria-roledescription="axis" aria-label="X-axis titled 'Year' for a linear scale with values from −900,000 to 100,000"><g transform="translate(0.5,300.5)"><path class="background" aria-hidden="true" d="M0,0h0v0h0Z" pointer-events="none"/><g><g class="mark-rule role-axis-tick" pointer-events="none"><line transform="translate(0,0)" x2="0" y2="5" stroke="#888" stroke-width="1" opacity="1"/><line transform="translate(40,0)" x2="0" y2="5" stroke="#888" stroke-width="1" opacity="1"/><line transform="translate(80,0)" x2="0" y2="5" stroke="#888" stroke-width="1" opacity="1"/><line transform="translate(120,0)" x2="0" y2="5" stroke="#888" stroke-width="1" opacity="1"/><line transform="translate(160,0)" x2="0" y2="5" stroke="#888" stroke-width="1" opacity="1"/><line transform="translate(200,0)" x2="0" y2="5" stroke="#888" stroke-width="1" opacity="1"/><line transform="translate(240,0)" x2="0" y2="5" stroke="#888" stroke-width="1" opacity="1"/><line transform="translate(280,0)" x2="0" y2="5" stroke="#888" stroke-width="1" opacity="1"/><line transform="translate(320,0)" x2="0" y2="5" stroke="#888" stroke-width="1" opacity="1"/><line transform="translate(360,0)" x2="0" y2="5" stroke="#888" stroke-width="1" opacity="1"/><line transform="translate(400,0)" x2="0" y2="5" stroke="#888" stroke-width="1" opacity="1"/></g><g class="mark-text role-axis-label" pointer-events="none"><text text-anchor="start" transform="translate(0,15)" font-family="sans-serif" font-size="10px" fill="#000" opacity="1">−900,000</text><text text-anchor="middle" transform="translate(40,15)" font-family="sans-serif" font-size="10px" fill="#000" opacity="0">−800,000</text><text text-anchor="middle" transform="translate(80,15)" font-family="sans-serif" font-size="10px" fill="#000" opacity="1">−700,000</text><text text-anchor="middle" transform="translate(120,15)" font-family="sans-serif" font-size="10px" fill="#000" opacity="0">−600,000</text><text text-anchor="middle" transform="translate(160,15)" font-family="sans-serif" font-size="10px" fill="#000" opacity="1">−500,000</text><text text-anchor="middle" transform="translate(200,15)" font-family="sans-serif" font-size="10px" fill="#000" opacity="0">−400,000</text><text text-anchor="middle" transform="translate(240,15)" font-family="sans-serif" font-size="10px" fill="#000" opacity="1">−300,000</text><text text-anchor="middle" transform="translate(280,15)" font-family="sans-serif" font-size="10px" fill="#000" opacity="0">−200,000</text><text text-anchor="middle" transform="translate(320,15)" font-family="sans-serif" font-size="10px" fill="#000" opacity="1">−100,000</text><text text-anchor="middle" transform="translate(360,15)" font-family="sans-serif" font-size="10px" fill="#000" opacity="0">0</text><text text-anchor="end" transform="translate(400,15)" font-family="sans-serif" font-size="10px" fill="#000" opacity="1">100,000</text></g><g class="mark-rule role-axis-domain" pointer-events="none"><line transform="translate(0,0)" x2="400" y2="0" stroke="#888" stroke-width="1" opacity="1"/></g><g class="mark-text role-axis-title" pointer-events="none"><text text-anchor="middle" transform="translate(200,30)" font-family="sans-serif" font-size="11px" font-weight="bold" fill="#000" opacity="1">Year</text></g></g><path class="foreground" aria-hidden="true" d="" pointer-events="none" display="none"/></g></g><g class="mark-group role-axis" role="graphics-symbol" aria-roledescription="axis" aria-label="Y-axis titled 'CO2 Concentration (ppm)' for a log scale with values from 100 to 1,000"><g transform="translate(0.5,0.5)"><path class="background" aria-hidden="true" d="M0,0h0v0h0Z" pointer-events="none"/><g><g class="mark-rule role-axis-tick" pointer-events="none"><line transform="translate(0,300)" x2="-5" y2="0" stroke="#888" stroke-width="1" opacity="1"/><line transform="translate(0,210)" x2="-5" y2="0" stroke="#888" stroke-width="1" opacity="1"/><line transform="translate(0,157)" x2="-5" y2="0" stroke="#888" stroke-width="1" opacity="1"/><line transform="translate(0,119)" x2="-5" y2="0" stroke="#888" stroke-width="1" opacity="1"/><line transform="translate(0,90)" x2="-5" y2="0" stroke="#888" stroke-width="1" opacity="1"/><line transform="translate(0,67)" x2="-5" y2="0" stroke="#888" stroke-width="1" opacity="1"/><line transform="translate(0,46)" x2="-5" y2="0" stroke="#888" stroke-width="1" opacity="1"/><line transform="translate(0,29)" x2="-5" y2="0" stroke="#888" stroke-width="1" opacity="1"/><line transform="translate(0,14)" x2="-5" y2="0" stroke="#888" stroke-width="1" opacity="1"/><line transform="translate(0,0)" x2="-5" y2="0" stroke="#888" stroke-width="1" opacity="1"/></g><g class="mark-rule role-axis-domain" pointer-events="none"><line transform="translate(0,300)" x2="0" y2="-300" stroke="#888" stroke-width="1" opacity="1"/></g><g class="mark-text role-axis-title" pointer-events="none"><text text-anchor="middle" transform="translate(-10,150) rotate(-90) translate(0,-2)" font-family="sans-serif" font-size="11px" font-weight="bold" fill="#000" opacity="1">CO2 Concentration (ppm)</text></g></g><path class="foreground" aria-hidden="true" d="" pointer-events="none" display="none"/></g></g><g class="mark-line role-mark layer_0_marks" role="graphics-object" aria-roledescription="line mark container"><path aria-label="Year: −803719; Concentration: 207.29" role="graphics-symbol" aria-roledescription="line mark" d="M38.5124,205.02649453764877L38.7272,208.24632544246387L38.9708,206.5628494856909L39.176,204.89456968556652L39.21,207.8025439063901L39.2964,207.97601757668644L39.6312,210.56687065928642L40.2856,210.55375460304433L41.3076,209.37218524699327L41.8284,211.0596783599654L42.038799999999995,210.4816398861163L42.5052,206.71557590103527L42.7312,204.08709171360522L43.2388,198.23017551031162L43.3724,201.2660991954541L43.7332,200.60218482747243L43.967600000000004,194.5248767274798L44.3572,191.1704620333721L44.5244,192.97432135573285L44.7988,188.40825909177198L44.9824,186.67702789379814L45.3032,177.00992422432773L45.388400000000004,176.91871072434472L45.6584,172.53550901067993L45.8376,170.90006898599037L46.1548,173.3462055776609L46.304,174.39528751328004L46.5724,175.67848417233498L46.766400000000004,177.60437360755915L47.0752,175.047789044865L47.5004,178.0277275768338L47.6888,176.79719197351372L48.0252,179.83342283432816L48.154799999999994,176.91364517956188L48.4924,179.3112658034052L48.7044,178.3295046213467L49.0328,178.19643197625987L49.156800000000004,178.07371620761378L49.486799999999995,179.34222663635313L49.7072,182.03276509161083L50.0668,181.18206230627015L50.24720000000001,183.08011319536337L50.5648,184.99544466839356L50.7964,186.8135899092889L51.1624,186.35530791825715L51.3064,187.14740318465002L51.480000000000004,182.70358001522953L51.58160000000001,183.8631720217245L51.684799999999996,182.4602085544598L51.790000000000006,183.8418018909395L51.910000000000004,186.0941544279135L52.0548,189.10168218651071L52.172399999999996,187.9498566096377L52.371599999999994,191.73113517752384L52.5404,191.12526030012162L52.9196,193.8424344419019L53.1556,196.3055575536402L53.5332,195.03033257882646L53.6812,194.4263381015968L54.056400000000004,191.13090965923675L54.304399999999994,190.28623143225215L54.4396,191.81629652742228L54.54520000000001,189.42468829275458L54.7072,195.5494451924515L54.909200000000006,194.9895910979827L55.2716,197.30281010613555L55.5392,200.87586799524283L55.913599999999995,200.4564552009773L56.0344,199.27840589848495L56.403999999999996,195.67808462398432L56.5736,193.98672153340655L56.736799999999995,194.13116859200684L56.8288,195.49685655618913L56.9552,193.22668484197413L57.1256,195.6722346208596L57.435199999999995,198.25404112279236L57.666,201.1135259942221L58.0396,203.67589059082854L58.153600000000004,204.5183759365119L58.545199999999994,207.55878640858842L58.733999999999995,210.31134542396492L59.206,207.17483226655798L59.38440000000001,212.70263039234922L59.7536,211.32987001125633L59.9904,213.9620473035079L60.3656,215.48550899181132L60.4976,214.9553558853087L60.8544,216.25739805250856L61.074799999999996,217.28223972790073L61.4452,218.07182649839902L61.604000000000006,217.78730098505065L61.9092,217.80809886913522L62.132,216.20944881761517L62.5116,218.24562310471453L62.970800000000004,217.08214107913952L63.1964,217.6279607410588L63.5552,218.21780006375224L63.722,217.3029571388957L64.0304,216.96498458991945L64.248,220.01056235702495L64.59559999999999,220.98730484716725L64.7376,219.5670810574566L65.11,219.4195887781011L65.3476,215.18618308942L65.716,206.77926478365023L65.872,205.25925907888657L66.1712,201.40051156754242L66.3372,198.94805240561718L66.616,198.5347900196717L66.726,200.47466249266702L66.9948,199.5734280390989L67.1712,202.96248994515975L67.44839999999999,204.75650582309447L67.58239999999999,204.51211523424163L67.8512,201.04035427259777L68.0356,202.33298698466012L68.3064,202.90063931757L68.4168,203.23498206659585L68.676,201.99480708543632L68.84519999999999,203.32800752065447L69.1848,202.6658743484742L69.3424,203.18539563609392L69.6204,203.29078936826724L70.14920000000001,202.45001706211139L70.28,202.6658743484742L70.5904,202.41304883773472L70.78999999999999,203.03674947670606L71.1232,200.8697798970865L71.268,201.7616672090575L71.58200000000001,202.0316568107421L71.77759999999999,199.6035699350276L72.104,197.89056467937985L72.2168,197.74783505630052L72.5436,199.0380657739381L72.7452,202.0808059958663L73.06519999999999,209.15791117757382L73.2688,214.02264496880218L73.598,216.45623308610334L73.8408,210.71780028532808L74.1456,203.0181806254566L74.256,201.1196254930444L74.554,192.85977207406978L74.7336,195.4267713772152L75.0184,193.14633433398745L75.1536,192.82542691911377L75.4548,194.9895910979827L75.8824,194.92559449975124L75.9716,194.85581586134083L76.2204,194.11960693217398L76.3868,194.4031633693104L76.5976,193.175025255812L76.816,191.19306878215065L76.9984,190.67410339492943L77.1964,188.76837848831224L77.4148,189.73172868814427L77.5,189.4693037694583L77.72240000000001,189.5083548482151L77.85560000000001,186.5624263141882L78.0956,188.09879856981792L78.1828,188.09879856981792L78.3588,187.2131721636191L78.4892,187.47658058201577L78.6824,188.62975320703387L78.7588,189.2129731683959L78.9472,189.49161723835542L79.0796,189.88831855323957L79.2616,190.19645479161403L79.3924,189.5976584336476L79.57600000000001,191.14785920648254L79.6864,190.25255794219075L79.8996,190.26378147190184L79.9828,190.9841058751743L80.17,190.09552995968454L80.2724,188.44699338999106L80.45400000000001,187.79007133629378L80.586,187.72951435422704L80.7384,187.46010194485078L80.83399999999999,186.08328438414193L81.0044,186.47517843443111L81.0936,186.55697160967756L81.27879999999999,184.94694723825208L81.3776,185.448960000497L81.5644,185.37866977077465L81.6812,186.00178795027753L81.84320000000001,186.79719490774832L81.94399999999999,186.24098885035954L82.122,186.95576640954087L82.206,186.99954425684118L82.3872,186.6224431409904L82.4872,187.6854905847354L82.6764,186.04524637115108L82.8004,186.3117459687324L82.9652,185.6871471684273L83.068,186.2954139919551L83.2516,187.15836237585566L83.35040000000001,183.94334124458268L83.5492,186.76987448898328L83.6472,186.31719041596878L83.8528,184.01821038525458L83.9928,186.27364120704965L84.1928,186.79719490774832L84.2912,186.3226350907255L84.4856,187.8782044945665L84.59,188.23685977227893L84.7996,190.2020640196666L84.9028,190.31429932364898L85.1168,191.10266531292936L85.256,192.82542691911377L85.46000000000001,192.81970360673745L85.58,193.34730359266993L85.802,195.52606984462983L85.91839999999999,195.68393488978865L86.1472,195.73074647551485L86.2724,196.9006305035301L86.508,196.90653592424817L86.66199999999999,196.1997897129749L86.8768,194.71637059875633L87.0104,193.97517268399326L87.2484,195.68393488978865L87.3968,197.13114048441784L87.684,197.78350280609786L87.8424,196.4996885465875L88.112,192.6767024458874L88.28960000000001,193.87704877381944L88.52879999999999,189.73172868814427L88.6548,189.45257117525682L88.886,189.96108501398103L88.998,191.9583559267276L89.2832,197.2199068752684L89.44879999999999,198.3376052095856L89.7396,199.30847961109708L89.9192,197.29688669704763L90.16760000000001,195.76001225981338L90.6172,199.59151233985259L90.7688,202.28989712520436L91.08840000000001,206.68374313081878L91.30160000000001,208.96342189743527L91.6756,211.57418342694666L91.9196,213.13000272227447L92.1968,211.77261225691151L92.3516,213.06981871416565L92.66159999999999,215.3425631173332L92.8524,217.98848640308123L93.2136,222.93418663256233L93.414,225.08643993760225L93.816,228.0525539135198L94.0788,227.25993412939783L94.4452,223.02796856288282L94.6512,223.29525643623555L95.0168,217.91213811811244L95.052,214.63694311237504L95.2048,215.6763477813186L95.6288,215.7855241526979L95.66120000000001,213.71993809201456L95.8672,216.5866690401358L96.2936,215.2881487726859L96.33279999999999,213.6796302610535L96.59440000000001,217.45498556287933L97.01520000000001,219.3704617656416L97.06240000000001,218.1830296158474L97.2744,220.4838634487956L97.6912,215.77187210212008L97.7184,216.9030031895308L97.90759999999999,214.38007070927097L98.3268,209.46319596938443L98.5704,209.69100130080574L99.0044,213.1099382971065L99.288,214.42059585565391L99.6964,218.5939133692547L99.9384,218.25953685361398L100.40119999999999,214.03611494499103L100.6408,216.88923354836686L101.1036,212.21022237527214L101.3352,214.0091763850747L101.878,215.11145893969945L102.22919999999999,216.44937165183518L102.7196,212.44288613056204L103.0596,212.78265599423304L103.6372,215.30855148882904L103.95,215.4310349261819L104.63119999999999,216.25054708131879L105.0128,217.16490325093687L105.69440000000002,212.76931498003222L106.1712,213.6594810209322L106.7764,213.0831905358606L106.8276,212.35641965576363L107.1488,214.26531786618162L107.83720000000001,211.9912335865664L108.1696,209.39168219346757L108.83359999999999,209.1838650311598L108.87199999999999,206.30235530546074L109.124,210.00406915965982L109.648,205.99171462676168L109.99239999999999,199.83891635219734L110.3612,192.3284369060859L110.6208,188.66855342054717L110.9812,187.06523862080502L111.558,186.37709435609418L111.5996,183.8418018909395L112.1196,184.03425937144627L112.66640000000001,182.77773991412533L113.1984,181.51223145414014L113.73599999999999,179.24936620073433L114.2372,179.20296079030092L114.26039999999999,179.11535119667857L114.72359999999999,179.1926507210884L115.20280000000001,177.4313478921283L115.6752,176.44340828431626L116.13960000000002,175.66844925535304L116.15960000000001,176.605018779736L116.608,176.6454527453242L117.0812,175.8994481152579L117.5884,178.2527153549222L118.1296,181.41256848465505L118.6588,183.50035564283536L119.2004,186.40433252744978L119.7396,187.10357563581488L120.27799999999999,190.1011348442683L120.854,191.83333547919852L121.0928,193.78476431676987L121.44800000000001,197.85486761228472L121.65840000000001,199.50111592703252L122.06360000000001,199.39874242183674L122.2912,196.552683603072L122.60560000000001,189.83796556920376L122.83440000000002,187.0378619434815L123.1612,186.9448242457173L123.35560000000001,189.70378600577777L123.6656,191.82765558101028L123.82679999999999,193.952078055807L124.3724,187.36676234846502L124.58439999999999,184.01821038525458L124.76400000000001,181.6119707183373L125.01,180.51380839277965L125.2036,182.53423001672164L125.46839999999999,186.60061564143007L125.6244,189.01271779618406L125.91120000000001,193.77323335432587L126.0916,194.94886235311623L127.19640000000001,202.93774617059645L127.3504,205.41046413791278L127.6456,203.4086833421096L127.79799999999999,199.99605047268403L128.00879999999998,197.62307477062274L128.1612,194.22369882418562L128.33239999999998,191.3344499021844L128.4544,188.03258112165796L128.6192,183.88454565825214L128.6956,183.70831792892133L128.8468,179.85414546263874L129.0676,179.10504805764577L129.2832,181.10880487135105L129.5016,180.0563640063981L129.7184,179.92151677654107L129.934,179.94225342222725L130.1404,179.11535119667857L130.3348,179.30094716050021L130.518,181.21347096355694L130.6864,179.53848295021706L130.8576,179.65224029286315L131.034,179.69880603015534L131.2148,181.28678728945943L131.3896,181.0408169729925L131.5584,181.84323942361172L131.71200000000002,182.55538673248628L131.8536,180.46174511753307L131.99,179.78680896803058L132.1268,180.8266256968841L132.2756,179.6832822684469L132.4352,179.6832822684469L132.5948,179.94225342222725L132.7532,180.61799739838878L132.9064,179.94225342222725L133.054,180.51380839277965L133.208,179.06384364725463L133.3664,179.16687911689579L133.4984,178.6011897378834L133.626,178.96088959640483L133.7604,178.2936639981668L133.8844,178.6011897378834L134.0128,178.3960919472873L134.14440000000002,178.70385983348086L134.28199999999998,179.89041799501837L134.4216,179.26999613420645L134.5644,179.37319482837094L134.7264,179.89041799501837L134.8904,181.87480789557588L135.0556,182.8254364348694L135.2088,182.87845305597583L135.3656,184.69397575874814L135.52599999999998,185.88235198289175L135.7176,189.1795758910127L135.856,188.90159766614687L136.0248,190.40977540860388L136.1996,190.5784334833804L136.3936,192.44822655292938L136.6052,191.3118186107307L136.8308,191.36840421186812L136.9252,191.65170144149218L137.0536,188.95714588466944L137.2688,186.97218137853613L137.4576,185.71966100078947L137.518,182.93149125926104L137.64479999999998,180.3576809390207L137.71720000000002,183.78305209838118L137.826,181.08788173904807L137.9004,184.3181179205064L138.0108,185.39488722753953L138.2172,189.29093345725414L138.44320000000002,193.36454396204485L138.7168,194.75121792510967L138.988,195.15846023568432L139.25639999999999,197.0956508547697L139.3324,196.03543243545786L139.48160000000001,193.5946338135815L139.5716,195.9181611903029L139.7072,196.27029206565362L139.9356,197.33243119176294L140.2276,200.14731990169454L140.5468,201.1196254930444L140.6876,204.0808517009326L140.892,208.07249173479377L141.2716,206.72831118715757L141.6572,203.52047086039687L142.048,203.58261650649337L142.434,203.1482181941037L142.8256,204.5183759365119L143.242,207.36666790058374L143.684,206.47384168327372L144.1184,202.59182584146765L144.5464,201.5473015685032L144.9744,205.5870921134479L145.4036,206.47384168327372L145.8464,210.08245380730898L146.3088,209.82135483301093L146.502,216.0315059965086L146.7624,213.7938681855761L146.9128,212.92281918164457L147.2072,209.69100130080574L147.3584,206.8557325611975L147.5848,202.46850510857777L147.7428,200.5718110437771L147.9484,196.8593000515035L148.2996,197.0956508547697L148.6636,196.56446321020184L149.0188,195.68393488978865L149.3732,194.51907827426135L149.7004,192.7338840770756L150.0216,191.3118186107307L150.3372,189.40238628233195L150.6452,188.23685977227893L150.9516,187.6854905847354L151.2592,184.9092394914361L152.1504,184.0503103348041L152.4512,182.9845510623039L152.7508,181.8221980242489L153.0484,183.09073553808432L153.34,182.9845510623039L153.6296,182.61358542141073L153.918,182.08546007496662L154.2116,184.3181179205064L154.5196,185.12485947374066L154.8408,186.3716474050881L155.1668,186.91747285597245L155.498,184.8553902058706L155.8344,188.56880477876976L156.1752,187.90575833723466L156.51919999999998,189.56974448719467L156.86599999999999,185.77386875883002L157.2036,187.5754961969688L157.5328,186.91747285597245L157.8552,188.12639910896797L158.1864,188.40272656052554L158.5064,189.29093345725414L158.8152,189.1795758910127L159.1092,190.24133537923348L159.41240000000002,190.35360453273012L159.7248,190.80365107545254L160.0356,191.02925865489183L160.3464,192.50530797534128L160.658,191.02925865489183L160.9692,191.14220911239602L161.2852,189.90510720664474L161.5936,187.85065647785098L161.9048,187.90575833723466L162.20239999999998,187.24606910725322L162.4896,186.7534849871602L162.7704,186.86278729606315L163.06,186.42612716526753L163.3428,186.09958978990386L163.6344,183.94334124458268L163.918,182.3492551530792L164.1996,184.15736732075442L164.4864,184.53276104083375L164.582,180.98331644886792L164.7696,179.16687911689579L164.892,185.448960000497L165.0592,184.8553902058706L165.354,187.52053380654357L165.6408,190.7473101688142L165.9284,189.84915343959582L166.2204,189.7932236921944L166.5128,190.80365107545254L166.8056,190.69099361528077L167.108,190.69099361528077L167.422,193.02016928250873L167.7476,195.27504936612294L168.1148,195.0419753423007L168.4892,197.9858047015821L168.6488,196.80027928285168L168.8696,190.7473101688142L169.0188,187.85065647785098L169.2232,186.42612716526753L169.6036,187.79557791242655L170,189.90510720664474L170.41,189.737317943827L170.7904,185.2868089595659L171.1432,182.93149125926104L171.2596,183.8364599058809L171.4928,183.94334124458268L171.63479999999998,189.96108501398103L171.8748,191.93561601139427L172.04999999999998,198.04536508870888L172.2996,199.96581765097486L172.4896,205.52398320227402L172.764,206.1564521363736L173.2288,207.4947154239823L173.6972,206.8557325611975L174.1272,204.5183759365119L174.5392,203.33421157982428L174.674,206.34679306806646L174.94039999999998,209.75616176456492L175.3692,213.3911218229233L175.8144,215.89479208619832L176.2656,212.65597148043435L176.67919999999998,208.13684754967156L177.0952,204.3932190156762L177.26239999999999,207.55878640858842L177.4968,206.91949001026578L177.68200000000002,210.27862199177716L177.9344,214.67077984664414L178.3792,214.13044379143415L178.8344,210.737499654552L179.2696,208.45910431690822L179.6856,206.53741247964152L180.0812,208.91160708483312L180.52280000000002,208.58823053617047L180.95159999999998,204.5183759365119L181.3964,207.43067593162834L181.8924,208.97637882097746L182.6472,210.27862199177716L183.242,208.39458916601282L183.8876,208.84686753340364L184.516,208.58823053617047L185.1548,209.4957152119272L185.786,204.89456968556652L186.404,203.45835484273834L187.0284,204.83179524707398L187.24,202.40688848668162L187.9084,193.07750188830562L188.37040000000002,197.45098292384688L189.1088,184.58647711851526L189.244,181.55946685118676L189.6036,179.5281462970663L189.918,177.88475555872486L190.13119999999998,172.8297244414751L190.2852,170.5908707523038L190.4836,170.20540199606802L190.7272,171.41379819841825L190.9768,171.70548864392018L191.49,170.30166232151873L191.7668,172.33973385052096L192.01520000000002,171.26819750019104L192.4992,168.7699668606087L192.7264,170.0130944414923L192.9496,168.8175607769629L193.37800000000001,168.38984012977915L193.59720000000002,169.7251642810573L193.804,168.96044693045894L194.20999999999998,169.77310847463278L194.4016,167.53858838935176L194.708,169.82107031746077L195.0956,173.07541251083072L195.47639999999998,168.24757804695943L196.24079999999998,164.23408103132235L196.5984,164.64835274623806L196.9408,168.3424021738315L197.2524,163.77531878067305L197.8672,163.27253906875902L198.1628,166.0388498779069L198.75480000000002,165.6201403223459L199.0548,167.49145930778488L199.636,167.86897016826794L199.9236,164.41803919046916L200.496,164.3720252946806L200.80960000000002,167.20904226533054L201.47,167.5857345250466L202.81760000000003,175.15769064950132L203.1784,168.8651720855765L203.5892,175.75879134465708L203.8652,176.46359863683932L205.016,182.8254364348694L205.65000000000003,182.29645339163878L206.26639999999998,186.42612716526753L206.9572,185.93662748651823L207.6076,193.19224284206317L209.276,191.70843488221922L209.966,194.5770744223684L210.698,200.45038666912544L211.39679999999998,209.75616176456492L212.22560000000001,208.45910431690822L213.55360000000002,205.6502316080545L214.704,208.91160708483312L215.7528,219.28628710271306L216.5064,219.07608806076996L217.176,214.3328072976679L218.45279999999997,203.831495941429L219.0148,203.70699679715298L219.51,199.54329311481257L220.10960000000003,196.62337722638588L221.1244,197.0956508547697L221.762,202.1607129867616L222.25160000000002,206.6010143088621L222.77960000000002,206.34679306806646L223.21040000000002,209.23578825375444L223.66320000000002,180.56589248084924L224.48600000000002,189.12393277909678L224.7864,186.15395588481795L225.18359999999998,184.9092394914361L225.4944,177.68078159209932L225.77319999999997,170.34981916722347L226.03279999999998,166.50566637361663L226.22879999999998,163.1813326635146L226.4968,166.7397033407522L226.7392,157.47305898329805L226.96239999999997,162.00142318578256L227.0404,161.6855724988026L227.1808,164.7405922860702L227.38,169.10348995808002L227.66039999999998,169.34224455040354L227.9224,169.77310847463278L228.2624,173.0262378189577L228.7588,168.15282288309498L229.01440000000002,169.67723772375004L229.2716,170.54262474376475L229.5452,172.4865376345834L229.8056,173.51882193905075L230.1436,172.4375846584031L230.4508,175.25768170933705L230.7772,175.35774956722935L231.1132,175.3077060311538L231.42680000000001,176.91871072434472L232.0532,181.03558860386042L232.41360000000003,177.62983795720947L232.84799999999998,189.56974448719467L233.2388,183.14386024608677L233.6068,179.78680896803058L233.92,169.34224455040354L234.1996,182.29645339163878L234.51680000000002,176.9693770071418L234.84560000000002,177.17223939856706L235.1592,179.78680896803058L235.4428,184.9092394914361L235.74280000000002,186.48062971555868L236.11200000000002,187.13644491519824L236.46959999999999,189.6814361739071L236.7756,193.65221982316905L237.0104,192.7338840770756L237.4496,193.88281872331527L237.7948,183.35657595794297L238.1476,181.3496627083122L238.46880000000002,180.51380839277965L238.74,185.55717291749104L239.13959999999997,185.82809907993385L239.53359999999998,188.12639910896797L239.9464,186.48062971555868L240.3696,188.07120387638193L240.7336,190.91640603235678L241.02960000000002,194.69314422476296L241.298,199.00205296367406L242.04840000000002,201.42496508573947L242.63439999999997,201.66975302918132L242.998,205.39785701181353L243.3196,205.83983388925398L243.6528,204.83179524707398L244.1548,199.00205296367406L244.4344,197.03652294607576L244.706,188.73509496671832L245.4656,190.91640603235678L245.652,191.25525757464766L245.8024,190.69099361528077L246.136,193.53707324512987L246.4076,192.61954589986388L247.00600000000003,190.7473101688142L247.74280000000002,195.1002047710111L248.2196,200.08679105295386L248.5564,202.71526341069222L248.93239999999997,206.79200629699181L249.3436,208.26565462350536L249.80280000000002,214.1978633761576L250.2768,210.737499654552L250.718,213.59233938349124L251.1144,213.7266572763884L251.5136,216.0999167854633L251.92000000000002,220.05993136792765L252.3656,210.47508598161167L252.80399999999997,213.5252323284042L253.1816,218.30824667937407L253.47680000000003,217.2684299505207L253.9772,202.2837425941764L254.3264,209.75616176456492L254.94639999999998,192.56241441700544L255.65319999999997,200.51108471102037L255.958,204.0184680059075L256.2624,206.0297124915828L256.4224,203.58261650649337L257.0212,207.17483226655798L257.6168,207.11094977223044L257.9556,208.45910431690822L258.2604,210.34407707708806L258.9452,212.72263218517372L259.2772,211.85869202419906L259.5984,212.72263218517372L259.9272,200.9367646285416L260.2236,209.5607780570101L261.14000000000004,200.45038666912544L262.032,197.62901302839236L262.3044,191.25525757464766L262.5544,187.74052262127523L262.75719999999995,180.67012316206507L262.94719999999995,179.42482484472757L263.1312,173.66696106196974L263.5244,165.75956071507323L263.706,166.3187390179208L264.038,173.91423451742466L264.2468,175.65841511120922L264.704,179.16687911689579L264.88439999999997,181.9800914120694L265.0252,182.8254364348694L265.1768,182.93149125926104L265.41,186.42612716526753L265.6176,184.26451234699934L265.8232,181.9800914120694L266.0396,185.1788202716009L266.2096,179.5281462970663L266.3836,183.14386024608677L267.63759999999996,185.07092101527175L267.90319999999997,189.29093345725414L268.328,190.12916288451206L268.95120000000003,194.6350963981974L269.2732,189.737317943827L269.4044,188.95714588466944L269.692,188.40272656052554L270.04,199.84495646923648L270.276,207.55878640858842L271.0712,206.09306690302856L271.5284,204.0808517009326L271.764,205.1459703319642L272.1012,199.6035699350276L272.4056,200.81499981166854L273.1528,185.66547578704487L273.49960000000004,183.09073553808432L273.702,180.0459861861233L273.8136,179.73503533549123L274.03400000000005,181.9274390191238L274.2576,184.53276104083375L274.4152,185.77386875883002L274.7476,185.1788202716009L275.1164,179.9941094804525L275.448,184.1038278317861L275.7668,176.81743722948963L275.9484,186.20834467482547L276.1488,182.24367302042032L276.35679999999996,179.5798377655368L276.4472,182.08546007496662L276.71000000000004,183.8364599058809L276.7936,183.46306418992003L277.002,184.74775835788992L277.1472,185.66547578704487L277.2512,191.48164919472214L277.47,187.46559459233248L277.5364,186.97218137853613L277.7308,190.69099361528077L277.884,191.82197593042534L278.0212,193.5946338135815L278.236,192.2771321822212L278.402,190.24133537923348L278.5496,190.40977540860388L278.6988,183.56963952884502L279.2432,181.87480789557588L279.68199999999996,186.42612716526753L280.0792,180.14980160561683L281.2048,184.53276104083375L281.4492,185.2868089595659L281.7452,193.53707324512987L282.46000000000004,197.2731957533381L282.7292,193.47953809534482L283.55,198.46305191861862L283.9944,197.0956508547697L284.27799999999996,190.69099361528077L284.8572,190.7473101688142L285.4052,202.90063931757L286.2156,207.4947154239823L287.03159999999997,209.88658053878927L287.4768,210.93465733843593L287.90160000000003,198.64247128767175L288.25919999999996,201.36383989363966L288.8308,204.76905103947024L289.688,216.30536494036704L289.7664,216.78600759982365L290.0388,216.1683635138939L290.4468,212.32317859305715L291.0032,211.19799920589833L292.0044,211.1321138216518L292.9744,211.924945951165L293.28159999999997,220.69634788497234L293.6144,218.6567046152766L294.0664,216.30536494036704L294.3228,215.28134857724243L295.046,211.9912335865664L295.2368,206.91949001026578L296.718,218.09961838087878L296.8936,219.49682581468068L297.31359999999995,217.06145874802678L298.25719999999995,216.79976633520482L298.82439999999997,212.12391011999813L299.27000000000004,210.48819412031895L300.202,208.1690373817244L300.542,208.0660579013281L300.9936,208.5365646905162L301.4868,212.44953977530824L302.3368,213.93512405196375L302.86,212.30988454227568L303.3196,213.26384457961555L303.8356,211.9846033051691L304.8,214.5016839831016L305.2464,210.63903258002944L305.6748,210.2262815895181L306.1536,207.27710945330057L306.9712,201.8352452680911L307.2696,195.6605354025542L307.6072,194.5596728670717L307.696,192.61954589986388L307.9896,190.19645479161403L308.2512,185.3246261560248L308.4528,180.18096236900635L308.63079999999997,179.6625867963089L308.9176,175.20267713020527L309.1488,171.3458309567236L309.2288,170.07075690960366L309.39320000000004,163.19956883746434L309.5108,165.51799343779513L309.5704,167.7131143734569L309.7784,167.31252411417856L309.8544,167.83116982142386L309.9952,168.23336037844004L310.1,169.14166130371922L310.3744,168.1291448558474L310.6628,167.3454674007417L310.85319999999996,167.95406106793183L311.01800000000003,165.13796811750603L311.1964,167.78865753604205L311.3276,168.38984012977915L311.57439999999997,166.24404310383756L311.8632,166.3187390179208L311.94,166.66944809797624L312.0432,167.4396370008595L312.2096,166.0947796253083L312.5628,167.3407607069359L312.7224,171.20515436050155L312.8936,168.39458487548052L313.0828,171.6860222843186L313.3168,166.9178530246453L313.7324,168.20966771147096L313.9056,168.66056678754958L314.1896,168.85088686604882L314.4164,169.07486878608978L314.6012,167.27488484060447L314.854,168.16703176522597L315.08,171.60818591753738L315.3084,175.21767607623826L315.5324,173.14920936614325L315.6032,173.9538418576205L315.7256,177.1265678134087L316.0292,176.54944255823284L316.558,182.354536506353L316.844,183.71365466247406L317.1284,183.54831748566338L317.4192,187.8892253323815L317.99,185.75218294909772L318.2328,183.34061022732178L318.2776,185.1788202716009L318.384,176.7263583410753L318.5772,181.25536095493814L318.7936,184.66171685265235L319.0476,186.54606288571497L319.0704,181.790642295381L319.45640000000003,185.56799915411457L319.67400000000004,187.53702008927908L319.9912,185.89863226005295L320.2496,183.37786664261674L320.5628,181.7328099682897L320.7492,182.91557753110115L321.0356,184.32347969110202L321.3464,184.22164376239908L321.60920000000004,186.01265119658976L321.8716,184.66709278236664L322.19,182.8466404945746L322.4116,182.61358542141073L322.6864,184.36638180124754L322.9524,184.63484053088476L323.2508,186.91200326698012L323.41,188.59096454488684L323.71279999999996,190.09552995968454L324,189.38008808878604L324.202,190.84874134915782L324.4464,190.6009377315703L324.6532,191.62901498060063L324.90160000000003,192.1176465608382L325.082,192.97432135573285L325.2996,194.93141107354046L325.5256,198.5826373740732L325.7476,195.14098086112094L325.9688,196.64695029404038L326.1808,195.28671401938922L326.42359999999996,192.18597363760958L326.6332,188.8516245102938L326.8052,186.79719490774832L327.0372,184.232359586279L327.2036,180.20693536603653L327.3584,182.13817637937626L327.5848,182.5500972314575L327.7692,185.46518620944389L327.9524,186.5406088662249L328.09560000000005,189.162880462089L328.2972,191.29484772154558L328.4912,189.27979341667017L328.648,191.14220911239602L328.8288,188.82386992599717L329.016,191.90151357838428L329.192,193.02016928250873L329.3768,194.84418972073874L329.5476,193.393282981588L329.7336,194.39157754879037L329.9576,190.5334366448842L330.1012,187.02143869785743L330.2812,186.2954139919551L330.4396,180.64927035399054L330.56199999999995,180.86839147527385L330.7528,184.17343345858487L330.9696,185.26520406032546L331.0916,190.73041264663618L331.2796,189.93869100488996L331.4924,190.9784628778124L331.6336,190.1684122731418L331.784,189.91070390522464L331.9428,186.23010654969994L332.1024,187.26800501850482L332.26840000000004,188.66855342054717L332.40840000000003,194.24684165378076L332.6092,197.0779096644597L332.7592,199.93559184302794L332.9432,202.55481736385164L333.1472,206.20718253497847L333.332,207.4755002709984L333.5216,209.58030324793077L333.688,207.26432041333246L333.854,208.95046626230592L333.996,205.07678678225722L334.2044,206.86210690228197L334.4052,209.30721648900453L334.474,210.8886271861921L334.5616,203.96858254743606L334.7612,210.23282299002523L334.83320000000003,208.60761051159912L334.9172,207.3026912999508L335.1344,209.86700939819153L335.2212,211.50150184226996L335.3576,211.39585549991463L335.5956,209.59332166766288L335.67,207.9374479066088L335.75919999999996,208.03389349882175L336.0196,205.59971756474621L336.15840000000003,202.77702607815405L336.286,202.98105086043736L336.3556,204.61232258971432L336.4528,201.00987817960228L336.5732,198.9120644637888L336.6308,201.5656619524833L336.736,199.26637835685898L336.8868,195.2458923010867L337.028,193.56585035061866L337.138,190.75294316324084L337.4068,195.42093264703553L337.4932,194.72217783927212L337.6424,195.08855680313687L337.78959999999995,198.83412467454588L337.8956,199.84495646923648L338.1784,201.82911217587016L338.28520000000003,204.78787112924056L338.416,203.16680558903795L338.55879999999996,200.40184858732306L338.6628,204.46204044349463L338.7744,199.14616396876684L338.902,200.94285585763043L339.0252,198.48696023037863L339.1172,197.05425850132306L339.2576,196.59980842303452L339.42,195.3567238784467L339.53679999999997,195.08855680313687L339.6596,196.59391688831323L339.7504,196.8474937586614L339.826,197.8191803229758L339.9452,200.98550243686122L340.068,200.2199916584756L340.2076,202.36377418312338L340.3684,204.8066939379565L340.5692,204.95109255170772L340.6916,205.3726464187452L340.7772,206.8684815552456L340.8888,207.19400312436596L340.9948,207.07263530509033L341.0588,209.61285173658857L341.1848,208.66576774014754L341.4088,209.0541474332572L341.4908,205.72603941347353L341.6024,206.05505055945176L341.696,207.24513920688324L341.7704,206.9450017284931L341.85400000000004,204.83179524707398L341.94559999999996,203.16680558903795L342.02479999999997,202.81409773712414L342.0816,200.76632573075455L342.1256,199.41078218939808L342.2564,198.25404112279236L342.3076,197.7181193885766L342.35720000000003,196.22916105703646L342.4292,195.6722346208596L342.5016,198.7562314817904L342.596,200.5718110437771L342.668,200.92458302462725L342.7232,204.61232258971432L342.7816,202.41304883773472L342.8536,203.06151206246358L342.9176,201.92113888694857L342.98359999999997,206.58193049984354L343.04,205.70076524373937L343.0984,208.39458916601282L343.142,206.9131128611702L343.25640000000004,208.59469020768424L343.31559999999996,207.63571320352406L343.3736,206.9705184431401L343.4396,208.61407114406373L343.51120000000003,207.648538753032L343.5928,206.9450017284931L343.64,205.61865803596962L343.72880000000004,206.58193049984354L343.85360000000003,209.10601897552527L344.01959999999997,209.7626796036604L344.07640000000004,208.96342189743527L344.1376,206.1627923560673L344.2584,206.98965925920317L344.31280000000004,208.6980885322984L344.4172,209.06063024677115L344.47839999999997,209.38518288712487L344.55879999999996,208.730417344298L344.5856,208.83392348246946L344.65680000000003,211.06626173808112L344.72200000000004,213.86784025343732L344.7352,214.2788129560037L344.76279999999997,214.60311516344532L344.8196,211.29688979476055L344.82599999999996,213.7468169088764L344.8772,213.94185434328799L344.8964,211.8785646649429L344.9316,212.52275230259974L344.974,209.43068484143765L344.9984,210.9083524030405L345.0188,215.3289574004692L345.0284,206.61373840131526L345.044,204.6624551840786L345.052,203.75055796642633L345.0588,203.64479180930584L345.0736,204.14950828305172L345.1316,205.00763994975202L345.1584,206.93224524494929L345.18919999999997,208.1754763026069L345.1976,205.8461587196914L345.23,206.06138584644188L345.25480000000005,205.78292422778284L345.2908,205.49874819453086L345.3116,206.81749306244305L345.33119999999997,206.60737619975777L345.35040000000004,204.43701026339355L345.3668,203.28458737637882L345.3908,205.06421190100323L345.4148,202.84499884595925L345.4364,204.58099951117157L345.4664,204.95109255170772L345.5032,205.5113650874445L345.5136,204.36820205235617L345.5444,200.65687548852773L345.58,202.58565703179957L345.622,200.74807763745872L345.6692,202.043942368938L345.7208,202.01323064530354L345.7324,200.69334868745145L345.7956,203.43351672531082L345.80760000000004,201.78618861214528L345.8448,205.46721130657613L345.8592,203.54532556184017L345.8612,204.42449697635243L345.9228,204.98878808998901L345.93240000000003,203.23498206659585L345.9708,205.61234423961886L346.00399999999996,207.42427371327514L346.05199999999996,207.90531523459074L346.0948,207.27071477639575L346.112,207.2579263640798L346.1432,206.4103018894901L346.1776,210.37026832143613L346.2752,209.6323847334874L346.31080000000003,208.5365646905162L346.34520000000003,207.03433210194189L346.4008,210.47508598161167L346.438,207.5651952403156L346.49920000000003,209.36568691313968L346.51079999999996,208.51719527926062L346.5528,208.50428393799837L346.5676,208.46555758938146L346.57640000000004,208.36879204790648L346.5812,209.00229653432552L346.6016,209.4957152119272L346.6268,208.80803923790816L346.6364,207.35387006701214L346.6452,206.8111209036581L346.6672,206.2325551435439L346.7136,207.36666790058374L346.74399999999997,210.48819412031895L346.83320000000003,207.69343812145158L346.8496,207.8796148016105L346.8956,211.55435715519408L346.9208,210.41611567201588L346.932,209.5022200345437L346.9388,210.023660900942L346.9572,209.91920564089307L347.0464,212.19029908682108L347.0548,212.14382325826512L347.0796,212.46284808426478L347.104,213.0631333179268L347.1544,212.36971845587425L347.1832,212.7159645797082L347.1972,212.0111264554608L347.2096,213.34421574007567L347.2168,213.35091557524393L347.2256,212.80934212153636L347.2436,212.56936352186338L347.2768,209.67145951471738L347.358,211.1321138216518L347.3836,211.57418342694666L347.4128,211.7262851585646L347.5208,211.23095439630325L347.5764,212.1040000247699L347.6276,211.85869202419906L347.6548,210.14781038985376L347.69440000000003,212.36306888613947L347.7088,212.93617592414142L347.742,213.37101714815606L347.7756,213.2504542050332L347.80600000000004,213.58562712236454L347.8356,212.82268723519863L347.8568,214.69108610606722L347.9196,211.71966834616268L347.9208,212.0442879880207L347.94800000000004,213.71993809201456L347.9692,214.1102247171513L348.0064,214.6640117967442L348.0528,214.38007070927097L348.0632,213.8543876623494L348.17040000000003,216.4082106327783L348.2376,217.42041806789777L348.33799999999997,217.75264522089606L348.4696,216.147825719473L348.4948,218.35001245776382L348.5684,221.30739757529275L348.6196,220.34239943427784L348.6548,219.15312167263974L348.6688,218.7823779652637L348.7072,217.42041806789777L348.7392,217.5795045381786L348.7804,215.3017502284421L348.79920000000004,215.4310349261819L348.8448,215.71045557087209L348.8828,215.4991310676845L348.9076,216.53173272157733L348.9364,216.89611818704168L349.016,216.91677428610535L349.03360000000004,216.4905456786935L349.0504,215.6831686249487L349.08000000000004,214.74525160892958L349.098,217.6833613348863L349.1196,214.83331860718314L349.1764,214.42059585565391L349.2004,214.15740743899948L349.2188,214.54224697987107L349.2432,213.73337680729944L349.2904,213.7938681855761L349.32959999999997,214.45437644247258L349.3492,214.26531786618162L349.4092,216.61414588835729L349.4144,216.95120839698342L349.432,214.58282260915297L349.47119999999995,215.2881487726859L349.4944,215.1318340034006L349.5412,216.40135172700582L349.5908,216.8616986310413L349.6092,217.06835249360742L349.626,216.86858181484348L349.6336,215.97680321641627L349.65160000000003,218.0370949799007L349.6924,216.85481581086106L349.69440000000003,215.95629559373356L349.7052,214.5287245777239L349.7156,215.37658362685374L349.7456,215.04356506397292L349.76,215.3289574004692L349.7788,215.53319248969L349.8032,215.04356506397292L349.868,216.33278252139655L349.912,213.03639516287515L349.946,218.95712563030636L349.96320000000003,218.17607663964316L349.998,217.69721516493513L350.03679999999997,218.84526012769302L350.09839999999997,219.53897441414384L350.1652,219.48980237355494L350.1956,219.13911217320995L350.254,220.71761540052472L350.278,220.15166633417965L350.3736,220.18696621913134L350.4656,218.76840827194943L350.5624,220.99440948193038L350.63960000000003,221.50696400643298L350.71439999999996,222.91976463292713L350.92240000000004,223.0063205866643L351.072,218.63577083735012L351.1488,220.07404023626896L351.2304,221.17215137816444L351.3396,217.7595756363114L351.402,218.60088868015234L351.4368,213.97551101588633L351.4692,211.21777131984035L351.50600000000003,217.33749347960716L351.53720000000004,216.31907300967012L351.5744,216.010989762379L351.5824,216.78600759982365L351.6464,219.05508679625288L351.6804,216.36706261330662L351.7196,217.41350566931953L351.73839999999996,219.7006704783423L351.76,220.07404023626896L351.8408,218.43358420185496L351.8632,218.29432772796181L351.8876,215.50594263974574L351.95759999999996,218.1830296158474L352.0144,215.8401466645853L352.0636,217.78036909472578L352.1548,219.68660198199234L352.24199999999996,218.2804102633787L352.2948,216.3396378182633L352.3528,217.47573046294247L352.3944,215.77869794859552L352.4488,214.56253321495623L352.5136,217.9190770228392L352.5652,213.70650076273589L352.6168,216.38077717590568L352.6948,216.05202546179575L352.7724,213.84766188764954L352.82640000000004,212.28330050942057L352.8636,213.92839410828753L352.9284,215.40380643191966L352.9528,217.09593112409001L353.00280000000004,215.33576008129933L353.0672,215.29494932307344L353.1188,215.62861187164864L353.1824,214.5287245777239L353.23319999999995,217.40659363745652L353.246,217.4480713301412L353.2584,214.3530609461121L353.2812,215.50594263974574L353.3092,213.7266572763884L353.34680000000003,217.35821967917434L353.372,217.98154380085919L353.3852,218.38482750341655L353.39680000000004,218.13436657272922L353.4112,217.42733083323003L353.42359999999996,217.6071915902025L353.436,217.24771802859948L353.4504,218.36393735967104L353.46160000000003,217.0407796995632L353.47400000000005,217.39277067372055L353.48720000000003,217.14420777879886L353.4992,219.39151393134668L353.5108,217.05456536718498L353.524,219.93302025868417L353.53560000000004,217.34440184645683L353.5472,217.30986367469583L353.56,217.93989595461076L353.5704,217.89826141721835L353.58320000000003,217.08903591916817L353.5936,217.29605096918905L353.6056,217.3789491763787L353.6172,215.19977390407496L353.6276,216.1957522767804L353.638,216.70348568558745L353.65000000000003,215.54681955220332L353.6608,218.27345208854877L353.67199999999997,215.21336613658127L353.68240000000003,216.09307408991435L353.69320000000005,216.70348568558745L353.7036,215.33576008129933L353.714,213.4045266631605L353.7248,214.19111984754298L353.73519999999996,212.46284808426478L353.7456,211.6865893238277L353.7556,214.5895864427467L353.76599999999996,214.75879650389666L353.7756,215.2881487726859L353.786,215.36297435702673L353.7956,214.3328072976679L353.80600000000004,215.8538058714512L353.816,215.08429714368287L353.826,214.31930661431602L353.836,216.0315059965086L353.8552,213.2236775837458L353.8648,212.40297139614586L353.8856,210.80975616855616L353.9144,210.58654721970612L353.9432,208.3301059454088L353.982,206.906736024198L354.0084,207.7961233892237L354.0324,206.3531425573131L354.06080000000003,206.13743332828625L354.0864,203.1791986590151L354.11760000000004,201.39439890505474L354.144,204.29317997087577L354.1584,204.17448328568173L354.176,204.61232258971432L354.1912,200.91240255955316L354.1968,198.94805240561718L354.20759999999996,202.22836489369746L354.2156,201.51670667706972L354.22319999999996,203.6385729436656L354.23,202.58565703179957L354.2384,200.37152146617623L354.2452,201.8352452680911L354.2532,200.51108471102037L354.26120000000003,201.58402492419452L354.2684,200.74199550760804L354.2756,198.12879539956845L354.2836,196.98333076129387L354.2908,195.3683958466132L354.2964,193.00870578819215L354.3052,196.39376305736184L354.3132,193.65797982425627L354.3196,194.4263381015968L354.33439999999996,195.85370696982162L354.3468,194.78607457433114L354.3664,194.64670389471465L354.374,195.86542354757873L354.3804,194.6873382781667L354.382,195.08855680313687L354.40520000000004,195.05944143852236L354.412,195.21091243388952L354.442,195.88300039004332L354.4728,194.4263381015968L354.498,196.00023997733973L354.5204,195.64883723468358L354.5616,195.19925456482562L354.5948,195.35088828645547L354.616,194.49588704163142L354.6268,194.11960693217398L354.642,192.09487882909463L354.6516,192.82542691911377L354.6676,193.9001301051293L354.6828,192.46534835393584L354.6924,191.37972428178026L354.7076,192.71100841297132L354.71720000000005,192.15749966748712L354.7264,191.66871887990868L354.7416,188.97381496944007L354.7508,192.05504486962215L354.766,194.12538763384416L354.7756,192.4082844319607L354.7852,192.81970360673745L354.7896,191.60066245843998L354.7984,192.11195425489447L354.8084,192.35124549200273L354.8136,192.41398969960647L354.8184,192.20875729502032L354.8232,191.12526030012162L354.8276,192.7052901244597L354.8324,190.23011378286375L354.8368,189.69819818836996L354.842,192.69385430029976L354.846,192.39117012785687L354.8512,193.47378597752882L354.8556,192.85977207406978L354.8604,192.33413867823924L354.8648,192.73960362072626L354.8696,192.96859149912L354.8748,194.55387286508667L354.8764,192.6767024458874L354.8828,190.64595789254724L354.8876,188.93492375523277L354.8928,191.18176491744018L354.8972,192.51672726143224L354.90119999999996,192.10057038904444L354.90560000000005,187.30640175226333L354.91,189.0460723241397L354.9144,189.55858058293603L354.9192,188.89049086382386L354.922,186.96123783608525L354.928,185.88235198289175L354.9324,187.04333681876628L354.93760000000003,187.25155273883604L354.942,188.5078848486347L354.9456,187.04333681876628L354.9496,186.06154701690554L354.9544,186.01265119658976L354.9588,185.0008343862495L354.9632,188.22028470138693L354.9676,184.22700156417105L354.9716,185.31922302729646L354.9812,184.82309131435184L354.9944,186.69340777998892L355.00280000000004,185.42192080883189L355.0112,184.53276104083375L355.0156,184.55961631137532L355.03,185.7576040631506L355.0384,186.8135899092889L355.0428,184.81232679626663L355.0564,188.23685977227893L355.06039999999996,186.45882595940856L355.0708,185.82267503195027L355.0852,187.79557791242655L355.0976,186.82998697417526L355.108,186.2845271446898L355.1172,186.3498618779792L355.132,187.90575833723466L355.1464,189.86034227077374L355.156,185.24900273665475L355.1708,187.09809822868948L355.1792,188.17057213687752L355.204,185.6275595412414L355.2312,187.05428725956713L355.2492,186.43702585150683L355.27639999999997,185.33543308573988L355.2948,185.07631385637313L355.322,186.7261737315166L355.3396,183.85782916040972L355.3672,188.22028470138693L355.3852,185.80098109782517L355.4128,187.12000923896957L355.45840000000004,187.65248251685517L355.4732,185.70882215509704L355.4936,186.25731400580375L355.5108,187.6249821801824L355.5288,188.77947488525044L355.5448,185.09249371911628L355.5532,187.07619090263495L355.56239999999997,186.55697160967756L355.57120000000003,188.8571761367118L355.57959999999997,186.25187206003636L355.5876,187.49306130363286L355.596,185.55176013651055L355.6044,186.92841272285574L355.6132,186.59515933786878L355.6228,186.24098885035954L355.6304,185.26520406032546L355.6388,186.2899704546098L355.648,184.77465798523264L355.65639999999996,184.73162124688483L355.6656,185.12485947374066L355.6748,185.92577057683556L355.68399999999997,182.03276509161083L355.692,185.07631385637313L355.7012,183.65496261281837L355.7104,184.57035996971163L355.7184,183.8097532655145L355.728,182.22256685731395L355.73679999999996,181.61722226893642L355.7452,182.18036478566114L355.754,183.63896027779137L355.7624,180.6596963408381L355.77160000000003,182.3281318805668L355.78159999999997,183.55897807107786L355.79,182.6241697948332L355.798,182.80953565443704L355.8072,181.83797875518505L355.8164,182.5077889522837L355.8248,184.3181179205064L355.834,183.61762688799035L355.8428,182.2067394784719L355.8516,180.23810979860772L355.8596,181.18206230627015L355.86760000000004,180.9415138193056L355.8776,181.16636081655656L355.8868,181.01990475520833L355.8956,180.8005288826615L355.904,180.11345679847906L355.9128,179.88005338385412L355.9216,180.0252330251092L355.93,179.05354458044786L355.938,177.7011646247709L355.94800000000004,180.08231217413058L355.9564,179.0123564525238L355.9652,181.4492775517737L355.9736,181.74332302764913L355.98359999999997,177.8388335663899L355.992,178.55501457737958L356.00079999999997,181.18206230627015L356.0092,176.22655937061828L356.018,177.57891423384433L356.02680000000004,179.80752418304692L356.03479999999996,178.73981348959362L356.0428,178.3909686369086L356.0516,176.93390854047527L356.0588,176.2467161441369L356.06759999999997,176.3879009425026L356.0764,176.14092785615162L356.0836,177.5840057106058L356.092,177.5076544428741L356.0996,178.55501457737958L356.1068,178.23224585848237L356.114,181.90112079974915L356.12080000000003,176.95417505337966L356.1284,172.42779626994042L356.1356,174.8581770818023L356.1432,175.15769064950132L356.1496,172.00271157125852L356.156,174.14214132726931L356.1624,172.09542786374777L356.17040000000003,170.82753478594054L356.17719999999997,171.72495791242187L356.184,171.96369286260133L356.19079999999997,171.02589067087368L356.1988,171.1372958461701L356.2056,170.5233313416014L356.21320000000003,173.28214913178837L356.21999999999997,171.4818009149453L356.2268,173.10492623721615L356.24440000000004,173.11968560789984L356.2532,173.46947963792277L356.2772,173.3215647559193L356.2996,172.87882500530128L356.3056,173.0262378189577L356.3156,173.1246057697013L356.344,173.1246057697013L356.3984,171.75416727126432L356.4456,172.97708168007202L356.4592,172.53550901067993L356.508,172.09542786374777L356.5776,171.8028640928259L356.6332,173.07541251083072L356.66,172.68253367691676L356.7028,173.81526881227046L356.726,173.51882193905075L356.7828,173.42015601644752L356.8196,173.3215647559193L356.9508,173.6175626368961L356.9576,174.01327545307265L356.97040000000004,175.05777626993378L356.9728,175.20767658703028L357.0052,172.92794408017934L357.0356,173.6175626368961L357.062,173.66696106196974L357.1228,174.50961260407644L357.156,175.8592449691946L357.1828,175.3077060311538L357.2152,175.05777626993378L357.2676,176.01007077562454L357.2956,174.6091073355789L357.3612,175.15769064950132L357.396,174.8581770818023L357.4392,176.3626781480049L357.502,175.8592449691946L357.5336,175.7085935615005L357.5896,175.10772388203523L357.6096,175.90950084043334L357.636,175.65841511120922L357.692,175.3077060311538L357.7156,175.45789434123824L357.7808,176.3122472030861L357.81800000000004,175.15769064950132L357.8704,174.01327545307265L357.90479999999997,174.36051282289392L357.9648,176.71624239366764L357.992,176.46359863683932L358.028,174.06282416809117L358.072,174.45989371601988L358.1068,175.80900847558166L358.1512,174.95793845311664L358.2196,174.90804821908912L358.2452,174.16197816417892L358.2592,173.91423451742466L358.344,172.78064237475368L358.3804,172.19309529303717L358.4064,175.15769064950132L358.43919999999997,172.78064237475368L358.47679999999997,172.58449880052993L358.5476,171.75416727126432L358.5668,172.92794408017934L358.6368,172.87882500530128L358.6556,171.75416727126432L358.69239999999996,170.68741639923442L358.7452,171.26819750019104L358.7872,170.92909397654682L358.8116,170.25352326884803L358.8708,169.86904982254032L358.9212,170.68741639923442L358.9428,171.02589067087368L358.9824,170.06114472585438L359.0428,169.86904982254032L359.07,169.2466902046676L359.0976,169.82107031746077L359.1364,169.77310847463278L359.1924,168.24757804695943L359.2376,168.01081922372853L359.2572,169.86904982254032L359.3028,169.1512058877732L359.3224,168.96044693045894L359.3688,168.2001918509212L359.4076,168.67483115388362L359.46639999999996,169.10348995808002L359.4776,167.5857345250466L359.5572,168.38984012977915L359.60040000000004,167.5857345250466L359.618,168.3424021738315L359.6592,168.0581365820009L359.6968,166.36544572018508L359.7288,168.72239032381162L359.7696,166.83343596678844L359.8144,166.9741614651548L359.8736,167.39725225771448L359.8864,167.39725225771448L359.94280000000003,167.3031132763277L359.98,166.78656122457713L360.0004,167.39725225771448L360.012,166.83343596678844L360.0224,167.06806297882025L360.0416,167.02110376239153L360.05440000000004,166.7397033407522L360.0616,166.75375893649056L360.07,166.99293635452673L360.09639999999996,165.73631361989683L360.1064,166.64135660485948L360.1096,165.74096270710922L360.1184,165.42984007557126L360.12719999999996,165.06857106071678L360.14279999999997,166.88032757952098L360.1536,167.1385335536407L360.1624,166.25804532612665L360.1748,165.8525905973343L360.1952,167.20434049724315L360.2072,167.3548812984749L360.2208,167.46319003969492L360.2228,166.57115435919795L360.2328,167.63289772721623L360.24600000000004,166.84750167865107L360.2548,166.04350977327644L360.2676,166.57583333226665L360.2804,167.20904226533054L360.29200000000003,165.85724383559156L360.3048,166.18338419041578L360.31719999999996,165.98294412953953L360.3288,166.49631363361257L360.34999999999997,166.1227535050875L360.3656,165.80141594204488L360.3832,167.0633662954661L360.3932,166.4402112883057L360.4072,165.94568695325736L360.4076,165.8246746572415L360.416,165.42520207672533L360.4196,165.40201455872082L360.428,164.5377514284155L360.4396,164.42264147396355L360.44640000000004,164.5377514284155L360.4584,163.77073930598596L360.4664,164.01826156615095L360.48,163.75700184762292L360.4844,164.14679181115122L360.5004,164.73597875781866L360.50399999999996,164.83289717450128L360.51120000000003,166.5851917825344L360.52279999999996,165.11945862115851L360.532,163.97238861850042L360.5396,166.6179516531068L360.556,165.42984007557126L360.5644,165.99226008854183L360.5716,165.9782863998198L360.57959999999997,164.81904727162296L360.5876,165.70842257985075L360.6008,164.4088351111625L360.612,164.02743809415665L360.62,164.2202946343389L360.624,165.0038338069717L360.62919999999997,164.6621845148769L360.6352,165.33711145376384L360.63640000000004,166.15073339235732L360.6412,168.16703176522597L360.6436,170.05633889989815L360.65160000000003,168.77948425310868L360.656,167.40196099276872L360.6596,166.77718829952934L360.6728,167.4160882190846L360.676,167.576303932985L360.6776,167.08685140549795L360.6892,166.95538928090343L360.6936,166.64135660485948L360.6964,167.3454674007417L360.69960000000003,166.9741614651548L360.7008,167.14793251083503L360.7052,167.18083420158862L360.7056,167.53858838935176L360.7092,166.85219058673894L360.7116,165.74096270710922L360.712,169.1178029021856L360.7176,165.10095175400085L360.71840000000003,165.2259241529966L360.7196,164.55617846254145L360.7256,163.80737961123563L360.73,165.22129340733414L360.73080000000004,163.13119634237398L360.7332,163.79821856886286L360.7348,163.93570188577525L360.7364,164.16516362978373L360.7372,165.11945862115851L360.7376,164.2202946343389L360.738,164.38122677387298L360.7384,164.1789441940328L360.73879999999997,162.70808585109594L360.74,164.00449798588866L360.74039999999997,162.57642871521523L360.7416,162.1596361312364L360.74199999999996,163.28622553807887L360.7428,164.39042890295624L360.7436,162.80350689694978L360.7448,162.55827954651855L360.7452,163.3866369345069L360.7456,162.7944161667918L360.7468,163.52368639795475L360.7472,161.83889005760918L360.748,162.5628166016814L360.74920000000003,162.78987103956277L360.7496,160.58161753303492L360.7508,161.58195988939227L360.752,162.28634496161803L360.7532,160.18005730243607L360.7536,161.5099301196459L360.7544,162.12797816860441L360.7548,159.3452143376661L360.7556,160.23352721203915L360.756,160.86792633018104L360.7568,158.97833541296734L360.75719999999995,159.01365228224364L360.75759999999997,159.7220075264155L360.7596,158.54207957735127L360.76,159.39834265615588" stroke="black" stroke-width="2"/></g><g class="mark-rule role-mark layer_1_marks" role="graphics-object" aria-roledescription="rule mark container"><line aria-label="y: 236.155" role="graphics-symbol" aria-roledescription="rule mark" transform="translate(400,188.04085646244744)" x2="-400" y2="0" stroke="green"/></g><g class="mark-group role-title"><g transform="translate(200,-18)"><path class="background" aria-hidden="true" d="M0,0h0v0h0Z" pointer-events="none"/><g><g class="mark-text role-title-text" role="graphics-symbol" aria-roledescription="title" aria-label="Title text 'CO2 Levels Have Not Altered Considerably Over the Years'" pointer-events="none"><text text-anchor="middle" transform="translate(0,10)" font-family="sans-serif" font-size="13px" font-weight="bold" fill="#000" opacity="1">CO2 Levels Have Not Altered Considerably Over the Years</text></g></g><path class="foreground" aria-hidden="true" d="" pointer-events="none" display="none"/></g></g></g><path class="foreground" aria-hidden="true" d="" display="none"/></g></g></g></svg>